<?xml version="1.0" encoding="UTF-8"?>
<svg width="2000px" height="2000px" viewBox="0 0 2000 2000" version="1.1" xmlns="http://www.w3.org/2000/svg" xmlns:xlink="http://www.w3.org/1999/xlink">
    <title>Luxury Pattern Design</title>
    <g id="Luxury-Pattern-Design" stroke="none" fill="none" fill-rule="evenodd" stroke-width="1">
        <g id="Group">
            <g id="Background" fill="#132620">
                <rect id="Rectangle" x="0" y="0" width="2000" height="2000"></rect>
            </g>
            <g id="Pattern" fill="#D6AD61">
                <path d="M172.7,0 L136.7,36 L164.5,63.8 L226.9,63.8 L226.9,1.4 L225.5,0 L227.1,0 L228.7,0 L228.7,0 L228.7,0 L292.1,63.4 L355.5,0 L355.5,0 L355.5,0 L357.1,0 L358.7,0 L357.3,1.4 L357.3,63.8 L419.7,63.8 L447.5,36 L411.5,0 L411.5,0 L414.7,0 L414.7,0 L449.1,34.4 L449.1,34.4 L449.1,34.4 L476.9,6.6 L476.9,0 L478,0 L478,5.4 L483.4,0 L486.6,0 L478.6,8 L542,71.4 L605.5,8 L597.5,0 L600.7,0 L606.1,5.4 L606.1,0 L607.2,0 L607.2,6.6 L635,34.4 L635,34.4 L635,34.4 L669.5,0 L672.7,0 L636.7,36 L664.5,63.8 L726.9,63.8 L726.9,1.4 L725.5,0 L727.1,0 L728.7,0 L728.7,0 L728.7,0 L792.1,63.4 L855.5,0 L855.5,0 L855.5,0 L857.1,0 L858.7,0 L857.3,1.4 L857.3,63.8 L919.7,63.8 L947.5,36 L911.5,0 L911.5,0 L914.7,0 L914.7,0 L949.1,34.4 L949.1,34.4 L949.1,34.4 L976.9,6.6 L976.9,0 L978,0 L978,5.4 L983.4,0 L986.6,0 L978.6,8 L1042,71.4 L1105.5,8 L1097.5,0 L1100.7,0 L1106.1,5.4 L1106.1,0 L1107.2,0 L1107.2,6.6 L1135,34.4 L1135,34.4 L1135,34.4 L1169.5,0 L1172.7,0 L1136.7,36 L1164.5,63.8 L1226.9,63.8 L1226.9,1.4 L1225.5,0 L1227.1,0 L1228.7,0 L1228.7,0 L1228.7,0 L1292.1,63.4 L1355.5,0 L1355.5,0 L1355.5,0 L1357.1,0 L1358.7,0 L1357.3,1.4 L1357.3,63.8 L1419.7,63.8 L1447.5,36 L1411.5,0 L1411.5,0 L1414.7,0 L1414.7,0 L1449.1,34.4 L1449.1,34.4 L1449.1,34.4 L1476.9,6.6 L1476.9,0 L1478,0 L1478,5.4 L1483.4,0 L1486.6,0 L1478.6,8 L1542,71.4 L1605.5,8 L1597.5,0 L1600.7,0 L1606.1,5.4 L1606.1,0 L1607.2,0 L1607.2,6.6 L1635,34.4 L1635,34.4 L1635,34.4 L1669.5,0 L1672.7,0 L1636.7,36 L1664.5,63.8 L1726.9,63.8 L1726.9,1.4 L1725.5,0 L1727.1,0 L1728.7,0 L1728.7,0 L1728.7,0 L1792.1,63.4 L1855.5,0 L1855.5,0 L1855.5,0 L1857.1,0 L1858.7,0 L1857.3,1.4 L1857.3,63.8 L1919.7,63.8 L1947.5,36 L1911.5,0 L1911.5,0 L1914.7,0 L1914.7,0 L1949.1,34.4 L1949.1,34.4 L1949.1,34.4 L1976.9,6.6 L1976.9,0 L1978,0 L1978,5.4 L1983.4,0 L1986.6,0 L1978.6,8 L1999.9,29.3 L1999.9,30.9 L1977.8,8.8 L1950.7,36 L2000,85.3 L2000,85.3 L2000,85.3 L2000,85.3 L2000,88.5 L2000,88.5 L2000,88.5 L2000,88.5 L1949.1,37.6 L1921.9,64.8 L1985.7,128.6 L1986.1,129 L1985.7,129.4 L1921.9,193.2 L1949.1,220.4 L2000,169.5 L2000,169.5 L2000,172.7 L2000,172.7 L1950.7,222 L1977.9,249.2 L2000,227.1 L2000,228.7 L1978.7,250 L2000,271.3 L2000,274.5 L1978,252.5 L1978,314.1 L2000,336.1 L2000,336.1 L2000,337.7 L2000,337.7 L1977.2,314.9 L1915.6,314.9 L1978.5,377.8 L2000,377.8 L2000,380.1 L1978.5,380.1 L1915.6,443 L1977.2,443 L2000,420.2 L2000,421.8 L1978,443.8 L1978,505.4 L2000,483.4 L2000,486.6 L1978.7,507.9 L2000,529.2 L2000,530.8 L1977.9,508.7 L1950.7,535.9 L2000,585.2 L2000,585.2 L2000,585.2 L2000,585.2 L2000,588.4 L2000,588.4 L2000,588.4 L2000,588.4 L1949.1,537.5 L1921.9,564.7 L1985.7,628.5 L1986.1,628.9 L1985.7,629.3 L1921.9,693.1 L1949.1,720.3 L2000,669.4 L2000,669.4 L2000,672.6 L2000,672.6 L1950.7,721.9 L1977.9,749.1 L2000,727 L2000,728.6 L1978.7,749.9 L2000,771.2 L2000,774.4 L1978,752.4 L1978,814 L2000,836 L2000,836 L2000,837.6 L2000,837.6 L1977.2,814.8 L1915.6,814.8 L1978.5,877.7 L2000,877.7 L2000,880 L1978.5,880 L1915.6,942.9 L1977.2,942.9 L2000,920.1 L2000,921.7 L1978,943.7 L1978,1005.3 L2000,983.3 L2000,986.5 L1978.7,1007.8 L2000,1029.1 L2000,1030.7 L1977.9,1008.6 L1950.7,1035.8 L2000,1085.1 L2000,1085.1 L2000,1085.1 L2000,1085.1 L2000,1088.3 L2000,1088.3 L2000,1088.3 L2000,1088.3 L1949.1,1037.4 L1921.9,1064.6 L1985.7,1128.4 L1986.1,1128.8 L1985.7,1129.2 L1921.9,1193 L1949.1,1220.2 L2000,1169.3 L2000,1169.3 L2000,1172.5 L2000,1172.5 L1950.7,1221.8 L1977.9,1249 L2000,1226.9 L2000,1228.5 L1978.7,1249.8 L2000,1271.1 L2000,1274.3 L1978,1252.3 L1978,1313.9 L2000,1335.9 L2000,1335.9 L2000,1337.5 L2000,1337.5 L1977.2,1314.7 L1915.6,1314.7 L1978.5,1377.6 L2000,1377.6 L2000,1379.9 L1978.5,1379.9 L1915.6,1442.8 L1977.2,1442.8 L2000,1420 L2000,1421.6 L1978,1443.6 L1978,1505.2 L2000,1483.2 L2000,1486.4 L1978.7,1507.7 L2000,1529 L2000,1530.6 L1977.9,1508.5 L1950.7,1535.7 L2000,1585 L2000,1585 L2000,1585 L2000,1585 L2000,1588.2 L2000,1588.2 L2000,1588.2 L2000,1588.2 L1949.1,1537.3 L1921.9,1564.5 L1985.7,1628.3 L1986.1,1628.7 L1985.7,1629.1 L1921.9,1692.9 L1949.1,1720.1 L2000,1669.2 L2000,1669.2 L2000,1672.4 L2000,1672.4 L1950.7,1721.7 L1977.9,1748.9 L2000,1726.8 L2000,1728.4 L1978.7,1749.7 L2000,1771 L2000,1774.2 L1978,1752.2 L1978,1813.8 L2000,1835.8 L2000,1835.8 L2000,1837.4 L2000,1837.4 L1977.2,1814.6 L1915.6,1814.6 L1978.5,1877.5 L2000,1877.5 L2000,1879.8 L1978.5,1879.8 L1915.6,1942.7 L1977.2,1942.7 L2000,1919.9 L2000,1921.5 L1978,1943.5 L1978,1999.7 L1976.9,1999.7 L1976.9,1943.9 L1914.5,1943.9 L1886.7,1971.7 L1886.7,1971.7 L1914.7,1999.7 L1914.7,1999.7 L1911.5,1999.7 L1911.5,1999.7 L1885.1,1973.3 L1858.7,1999.7 L1857.1,1999.7 L1855.5,1999.7 L1855.5,1999.7 L1792.1,1936.3 L1728.7,1999.7 L1728.7,1999.7 L1727.1,1999.7 L1725.5,1999.7 L1699.1,1973.3 L1672.7,1999.7 L1669.5,1999.7 L1697.5,1971.7 L1669.7,1943.9 L1607.3,1943.9 L1607.3,1999.7 L1606.2,1999.7 L1606.2,1943.5 L1543.3,1880.6 L1543.3,1942.2 L1600.8,1999.7 L1597.6,1999.7 L1542.2,1944.3 L1486.8,1999.7 L1483.6,1999.7 L1541.1,1942.2 L1541.1,1880.6 L1478.2,1943.5 L1478.2,1999.7 L1477.1,1999.7 L1477.1,1943.9 L1414.7,1943.9 L1386.9,1971.7 L1386.9,1971.7 L1414.9,1999.7 L1414.9,1999.7 L1411.7,1999.7 L1411.7,1999.7 L1385.3,1973.3 L1358.9,1999.7 L1357.3,1999.7 L1355.7,1999.7 L1355.7,1999.7 L1292.3,1936.3 L1228.9,1999.7 L1228.9,1999.7 L1227.3,1999.7 L1225.7,1999.7 L1199.3,1973.3 L1172.9,1999.7 L1169.7,1999.7 L1197.7,1971.7 L1169.9,1943.9 L1107.5,1943.9 L1107.5,1999.7 L1106.4,1999.7 L1106.4,1943.5 L1043.5,1880.6 L1043.5,1942.2 L1101,1999.7 L1097.8,1999.7 L1042.4,1944.3 L987,1999.7 L983.8,1999.7 L1041.3,1942.2 L1041.3,1880.6 L978.4,1943.5 L978.4,1999.7 L977.3,1999.7 L977.3,1943.9 L914.9,1943.9 L887.1,1971.7 L887.1,1971.7 L915.1,1999.7 L915.1,1999.7 L911.9,1999.7 L911.9,1999.7 L885.5,1973.3 L859.1,1999.7 L857.5,1999.7 L855.9,1999.7 L855.9,1999.7 L792.5,1936.3 L729.1,1999.7 L729.1,1999.7 L727.5,1999.7 L725.9,1999.7 L699.5,1973.3 L673.1,1999.7 L669.9,1999.7 L697.9,1971.7 L670.1,1943.9 L607.7,1943.9 L607.7,1999.7 L606.6,1999.7 L606.6,1943.5 L543.7,1880.6 L543.7,1942.2 L601.2,1999.7 L598,1999.7 L542.6,1944.3 L487.2,1999.7 L484,1999.7 L541.5,1942.2 L541.5,1880.6 L478.6,1943.5 L478.6,1999.7 L477.5,1999.7 L477.5,1943.9 L415.1,1943.9 L387.3,1971.7 L387.3,1971.7 L415.3,1999.7 L415.3,1999.7 L412.1,1999.7 L412.1,1999.7 L385.7,1973.3 L359.3,1999.7 L357.7,1999.7 L356.1,1999.7 L356.1,1999.7 L292.7,1936.3 L229.3,1999.7 L229.3,1999.7 L227.7,1999.7 L226.1,1999.7 L199.7,1973.3 L173.3,1999.7 L170.1,1999.7 L198.1,1971.7 L170.3,1943.9 L107.9,1943.9 L107.9,1999.7 L106.8,1999.7 L106.8,1943.5 L43.9,1880.6 L43.9,1942.2 L101.4,1999.7 L98.2,1999.7 L42.8,1944.3 L0,1986.7 L0,1983.5 L40.9,1942.6 L40.9,1881 L0,1921.9 L0,1920.3 L40.1,1880.2 L0,1880.2 L0,1877.9 L40.1,1877.9 L0,1837.7 L0,1837.7 L0,1836.1 L0,1836.1 L40.9,1877 L40.9,1815.4 L0,1774.5 L0,1771.3 L42.1,1813.4 L105.5,1750 L42.1,1686.6 L0,1728.7 L0,1727.1 L41.7,1685.4 L42.1,1685 L42.5,1685.4 L106.3,1749.2 L133.5,1722 L42.1,1630.6 L42.1,1630.6 L0,1672.7 L0,1672.7 L0,1669.5 L0,1669.5 L40.5,1629 L0,1588.5 L0,1588.5 L0,1588.5 L0,1588.5 L0,1585.3 L0,1585.3 L0,1585.3 L0,1585.3 L42.1,1627.4 L133.5,1536 L106.3,1508.8 L42.5,1572.6 L42.1,1573 L41.7,1572.6 L0,1530.9 L0,1529.3 L42.1,1571.4 L105.5,1508 L42.1,1444.6 L0,1486.7 L0,1483.5 L40.9,1442.6 L40.9,1381 L0,1421.9 L0,1420.3 L40.1,1380.2 L0,1380.2 L0,1377.9 L40.1,1377.9 L0,1337.7 L0,1337.7 L0,1336.1 L0,1336.1 L40.9,1377 L40.9,1315.4 L0,1274.5 L0,1271.3 L42.1,1313.4 L105.5,1250 L42.1,1186.6 L0,1228.7 L0,1227.1 L41.7,1185.4 L42.1,1185 L42.5,1185.4 L106.3,1249.2 L133.5,1222 L42.1,1130.6 L42.1,1130.6 L0,1172.7 L0,1172.7 L0,1169.5 L0,1169.5 L40.5,1129 L0,1088.5 L0,1088.5 L0,1088.5 L0,1088.5 L0,1085.3 L0,1085.3 L0,1085.3 L0,1085.3 L42.1,1127.4 L133.5,1036 L106.3,1008.8 L42.5,1072.6 L42.1,1073 L41.7,1072.6 L0,1030.9 L0,1029.3 L42.1,1071.4 L105.5,1008 L42.1,944.6 L0,986.7 L0,983.5 L40.9,942.6 L40.9,881 L0,921.9 L0,920.3 L40.1,880.2 L0,880.2 L0,877.9 L40.1,877.9 L0,837.7 L0,837.7 L0,836.1 L0,836.1 L40.9,877 L40.9,815.4 L0,774.5 L0,771.3 L42.1,813.4 L105.5,750 L42.1,686.6 L0,728.7 L0,727.1 L41.7,685.4 L42.1,685 L42.5,685.4 L106.3,749.2 L133.5,722 L42.1,630.6 L42.1,630.6 L0,672.7 L0,672.7 L0,669.5 L0,669.5 L40.5,629 L0,588.5 L0,588.5 L0,588.5 L0,588.5 L0,585.3 L0,585.3 L0,585.3 L0,585.3 L42.1,627.4 L133.5,536 L106.3,508.8 L42.5,572.6 L42.1,573 L41.7,572.6 L0,530.9 L0,529.3 L42.1,571.4 L105.5,508 L42.1,444.6 L0,486.7 L0,483.5 L40.9,442.6 L40.9,381 L0,421.9 L0,420.3 L40.1,380.2 L0,380.2 L0,377.9 L40.1,377.9 L0,337.7 L0,337.7 L0,336.1 L0,336.1 L40.9,377 L40.9,315.4 L0,274.6 L0,271.4 L42.1,313.5 L105.5,250.1 L42.1,186.7 L0,228.7 L0,227.1 L41.7,185.4 L42.1,185 L42.5,185.4 L106.3,249.2 L133.5,222 L42.1,130.6 L42.1,130.6 L0,172.7 L0,172.7 L0,169.5 L0,169.5 L40.5,129 L0,88.6 L0,88.6 L0,88.6 L0,88.6 L0,85.4 L0,85.4 L0,85.4 L0,85.4 L42.1,127.5 L133.5,36 L106.3,8.8 L42.5,72.6 L42.1,73 L41.7,72.6 L0,30.9 L0,29.3 L42.1,71.4 L105.5,8 L97.5,0 L100.7,0 L106.1,5.4 L106.1,0 L107.2,0 L107.2,6.6 L135,34.4 L135,34.4 L135,34.4 L169.5,0 L172.7,0 L172.7,0 Z M1856.3,1999.2 L1883.5,1972 L1792.1,1880.6 L1700.7,1972 L1727.9,1999.2 L1791.7,1935.4 L1792.1,1935 L1792.5,1935.4 L1856.3,1999.2 L1856.3,1999.2 Z M1793.7,1879 L1885.1,1970.4 L1912.3,1943.2 L1848.5,1879.4 L1848.1,1879 L1848.5,1878.6 L1912.3,1814.8 L1885.1,1787.6 L1793.7,1879 L1793.7,1879 Z M1356.3,1999.2 L1383.5,1972 L1292.1,1880.6 L1200.7,1972 L1227.9,1999.2 L1291.7,1935.4 L1292.1,1935 L1292.5,1935.4 L1356.3,1999.2 L1356.3,1999.2 Z M1293.7,1879 L1385.1,1970.4 L1412.3,1943.2 L1348.5,1879.4 L1348.1,1879 L1348.5,1878.6 L1412.3,1814.8 L1385.1,1787.6 L1293.7,1879 L1293.7,1879 Z M856.3,1999.2 L883.5,1972 L792.1,1880.6 L700.7,1972 L727.9,1999.2 L791.7,1935.4 L792.1,1935 L792.5,1935.4 L856.3,1999.2 L856.3,1999.2 Z M793.7,1879 L885.1,1970.4 L912.3,1943.2 L848.5,1879.4 L848.1,1879 L848.5,1878.6 L912.3,1814.8 L885.1,1787.6 L793.7,1879 L793.7,1879 Z M356.3,1999.2 L383.5,1972 L292.1,1880.6 L200.7,1972 L227.9,1999.2 L291.7,1935.4 L292.1,1935 L292.5,1935.4 L356.3,1999.2 L356.3,1999.2 Z M293.7,1879 L385.1,1970.4 L412.3,1943.2 L348.5,1879.4 L348.1,1879 L348.5,1878.6 L412.3,1814.8 L385.1,1787.6 L293.7,1879 L293.7,1879 Z M1976.9,1813.8 L1976.9,1751.4 L1949.1,1723.6 L1886.7,1786 L1886.7,1786 L1914.5,1813.8 L1976.9,1813.8 L1976.9,1813.8 Z M1913.1,1815.6 L1849.7,1879 L1913.1,1942.4 L1976.5,1879 L1913.1,1815.6 L1913.1,1815.6 Z M1792.1,1877.4 L1883.5,1786 L1856.3,1758.8 L1792.5,1822.6 L1792.1,1823 L1791.7,1822.6 L1727.9,1758.8 L1700.7,1786 L1792.1,1877.4 L1792.1,1877.4 Z M1947.5,1722 L1947.5,1722 L1947.5,1722 L1919.7,1694.2 L1857.3,1694.2 L1857.3,1756.6 L1885.1,1784.4 L1947.5,1722 L1947.5,1722 Z M2000,1986.7 L2000,1983.5 L1983.5,2000 L1986.7,2000 L2000,1986.7 L2000,1986.7 Z M1478.5,1877.9 L1540.1,1877.9 L1477.2,1815 L1415.6,1815 L1478.5,1877.9 L1478.5,1877.9 Z M1540.1,1880.1 L1478.5,1880.1 L1415.6,1943 L1477.2,1943 L1540.1,1880.1 L1540.1,1880.1 Z M1476.9,1813.8 L1476.9,1751.4 L1449.1,1723.6 L1386.7,1786 L1386.7,1786 L1414.5,1813.8 L1476.9,1813.8 L1476.9,1813.8 Z M1478,1814.2 L1540.9,1877.1 L1540.9,1815.5 L1478,1752.6 L1478,1814.2 L1478,1814.2 Z M1413.1,1815.6 L1349.7,1879 L1413.1,1942.4 L1476.5,1879 L1413.1,1815.6 L1413.1,1815.6 Z M1292.1,1877.4 L1383.5,1786 L1356.3,1758.8 L1292.5,1822.6 L1292.1,1823 L1291.7,1822.6 L1227.9,1758.8 L1200.7,1786 L1292.1,1877.4 L1292.1,1877.4 Z M1605.6,1880.1 L1544,1880.1 L1606.9,1943 L1668.5,1943 L1605.6,1880.1 L1605.6,1880.1 Z M1544,1877.9 L1605.6,1877.9 L1668.5,1815 L1606.9,1815 L1544,1877.9 L1544,1877.9 Z M1669.6,1813.8 L1697.4,1786 L1635,1723.6 L1607.2,1751.4 L1607.2,1813.8 L1669.6,1813.8 L1669.6,1813.8 Z M1734.5,1879 L1671.1,1815.6 L1607.7,1879 L1671.1,1942.4 L1734.5,1879 L1734.5,1879 Z M1671.9,1814.8 L1735.7,1878.6 L1736.1,1879 L1735.7,1879.4 L1671.9,1943.2 L1699.1,1970.4 L1790.5,1879 L1699.1,1787.6 L1671.9,1814.8 L1671.9,1814.8 Z M1543.2,1877.1 L1606.1,1814.2 L1606.1,1752.6 L1543.2,1815.5 L1543.2,1877.1 L1543.2,1877.1 Z M1542.5,1685.4 L1606.3,1749.2 L1633.5,1722 L1542.1,1630.6 L1542.1,1630.6 L1450.7,1722 L1477.9,1749.2 L1541.7,1685.4 L1542.1,1685 L1542.5,1685.4 L1542.5,1685.4 Z M1605.5,1750 L1542.1,1686.6 L1478.7,1750 L1542.1,1813.4 L1605.5,1750 L1605.5,1750 Z M1447.5,1722 L1447.5,1722 L1447.5,1722 L1419.7,1694.2 L1357.3,1694.2 L1357.3,1756.6 L1385.1,1784.4 L1447.5,1722 L1447.5,1722 Z M978.5,1877.9 L1040.1,1877.9 L977.2,1815 L915.6,1815 L978.5,1877.9 L978.5,1877.9 Z M1040.1,1880.1 L978.5,1880.1 L915.6,1943 L977.2,1943 L1040.1,1880.1 L1040.1,1880.1 Z M976.9,1813.8 L976.9,1751.4 L949.1,1723.6 L886.7,1786 L914.5,1813.8 L976.9,1813.8 L976.9,1813.8 Z M978,1814.2 L1040.9,1877.1 L1040.9,1815.5 L978,1752.6 L978,1814.2 L978,1814.2 Z M913.1,1815.6 L849.7,1879 L913.1,1942.4 L976.5,1879 L913.1,1815.6 L913.1,1815.6 Z M792.1,1877.4 L883.5,1786 L856.3,1758.8 L792.5,1822.6 L792.1,1823 L791.7,1822.6 L727.9,1758.8 L700.7,1786 L792.1,1877.4 L792.1,1877.4 Z M1105.6,1880.1 L1044,1880.1 L1106.9,1943 L1168.5,1943 L1105.6,1880.1 L1105.6,1880.1 Z M1044,1877.9 L1105.6,1877.9 L1168.5,1815 L1106.9,1815 L1044,1877.9 L1044,1877.9 Z M1169.6,1813.8 L1197.4,1786 L1135,1723.6 L1107.2,1751.4 L1107.2,1813.8 L1169.6,1813.8 L1169.6,1813.8 Z M1234.5,1879 L1171.1,1815.6 L1107.7,1879 L1171.1,1942.4 L1234.5,1879 L1234.5,1879 Z M1171.9,1814.8 L1235.7,1878.6 L1236.1,1879 L1235.7,1879.4 L1171.9,1943.2 L1199.1,1970.4 L1290.5,1879 L1199.1,1787.6 L1171.9,1814.8 L1171.9,1814.8 Z M1043.2,1877.1 L1106.1,1814.2 L1106.1,1752.6 L1043.2,1815.5 L1043.2,1877.1 L1043.2,1877.1 Z M1042.5,1685.4 L1106.3,1749.2 L1133.5,1722 L1042.1,1630.6 L950.7,1722 L977.9,1749.2 L1041.7,1685.4 L1042.1,1685 L1042.5,1685.4 L1042.5,1685.4 Z M1105.5,1750 L1042.1,1686.6 L978.7,1750 L1042.1,1813.4 L1105.5,1750 L1105.5,1750 Z M947.5,1722 L947.5,1722 L947.5,1722 L919.7,1694.2 L857.3,1694.2 L857.3,1756.6 L885.1,1784.4 L947.5,1722 L947.5,1722 Z M478.5,1877.9 L540.1,1877.9 L477.2,1815 L415.6,1815 L478.5,1877.9 L478.5,1877.9 Z M540.1,1880.1 L478.5,1880.1 L415.6,1943 L477.2,1943 L540.1,1880.1 L540.1,1880.1 Z M476.9,1813.8 L476.9,1751.4 L449.1,1723.6 L386.7,1786 L386.7,1786 L414.5,1813.8 L476.9,1813.8 L476.9,1813.8 Z M478,1814.2 L540.9,1877.1 L540.9,1815.5 L478,1752.6 L478,1814.2 L478,1814.2 Z M413.1,1815.6 L349.7,1879 L413.1,1942.4 L476.5,1879 L413.1,1815.6 L413.1,1815.6 Z M292.1,1877.4 L383.5,1786 L356.3,1758.8 L292.5,1822.6 L292.1,1823 L291.7,1822.6 L227.9,1758.8 L200.7,1786 L292.1,1877.4 L292.1,1877.4 Z M605.6,1880.1 L544,1880.1 L606.9,1943 L668.5,1943 L605.6,1880.1 L605.6,1880.1 Z M544,1877.9 L605.6,1877.9 L668.5,1815 L606.9,1815 L544,1877.9 L544,1877.9 Z M669.6,1813.8 L697.4,1786 L635,1723.6 L607.2,1751.4 L607.2,1813.8 L669.6,1813.8 L669.6,1813.8 Z M734.5,1879 L671.1,1815.6 L607.7,1879 L671.1,1942.4 L734.5,1879 L734.5,1879 Z M671.9,1814.8 L735.7,1878.6 L736.1,1879 L735.7,1879.4 L671.9,1943.2 L699.1,1970.4 L790.5,1879 L699.1,1787.6 L671.9,1814.8 L671.9,1814.8 Z M543.2,1877.1 L606.1,1814.2 L606.1,1752.6 L543.2,1815.5 L543.2,1877.1 L543.2,1877.1 Z M542.5,1685.4 L606.3,1749.2 L633.5,1722 L542.1,1630.6 L542.1,1630.6 L450.7,1722 L477.9,1749.2 L541.7,1685.4 L542.1,1685 L542.5,1685.4 L542.5,1685.4 Z M605.5,1750 L542.1,1686.6 L478.7,1750 L542.1,1813.4 L605.5,1750 L605.5,1750 Z M447.5,1722 L447.5,1722 L447.5,1722 L419.7,1694.2 L357.3,1694.2 L357.3,1756.6 L385.1,1784.4 L447.5,1722 L447.5,1722 Z M105.6,1880.1 L44,1880.1 L106.9,1943 L168.5,1943 L105.6,1880.1 L105.6,1880.1 Z M44,1877.9 L105.6,1877.9 L168.5,1815 L106.9,1815 L44,1877.9 L44,1877.9 Z M169.6,1813.8 L197.4,1786 L135,1723.6 L107.2,1751.4 L107.2,1813.8 L169.6,1813.8 L169.6,1813.8 Z M234.5,1879 L171.1,1815.6 L107.7,1879 L171.1,1942.4 L234.5,1879 L234.5,1879 Z M171.9,1814.8 L235.7,1878.6 L236.1,1879 L235.7,1879.4 L171.9,1943.2 L199.1,1970.4 L290.5,1879 L199.1,1787.6 L171.9,1814.8 L171.9,1814.8 Z M43.2,1877.1 L106.1,1814.2 L106.1,1752.6 L43.2,1815.5 L43.2,1877.1 L43.2,1877.1 Z M1728.5,1627.9 L1790.1,1627.9 L1727.2,1565 L1665.6,1565 L1728.5,1627.9 L1728.5,1627.9 Z M1790.1,1630.1 L1728.5,1630.1 L1665.6,1693 L1727.2,1693 L1790.1,1630.1 L1790.1,1630.1 Z M1598.5,1628.6 L1662.3,1564.8 L1635.1,1537.6 L1543.7,1629 L1635.1,1720.4 L1662.3,1693.2 L1598.5,1629.4 L1598.1,1629 L1598.5,1628.6 L1598.5,1628.6 Z M1664.5,1563.8 L1726.9,1563.8 L1726.9,1501.4 L1699.1,1473.6 L1636.7,1536 L1664.5,1563.8 L1664.5,1563.8 Z M1728,1564.2 L1790.9,1627.1 L1790.9,1565.5 L1728,1502.6 L1728,1564.2 L1728,1564.2 Z M1726.9,1694.2 L1664.5,1694.2 L1636.7,1722 L1699.1,1784.4 L1699.1,1784.4 L1726.9,1756.6 L1726.9,1694.2 L1726.9,1694.2 Z M1663.1,1565.6 L1599.7,1629 L1663.1,1692.4 L1726.5,1629 L1663.1,1565.6 L1663.1,1565.6 Z M1542.1,1627.4 L1633.5,1536 L1606.3,1508.8 L1542.5,1572.6 L1542.1,1573 L1541.7,1572.6 L1477.9,1508.8 L1450.7,1536 L1542.1,1627.4 L1542.1,1627.4 Z M1635.1,1534.4 L1635.1,1534.4 L1635.1,1534.4 L1697.5,1472 L1669.7,1444.2 L1607.3,1444.2 L1607.3,1506.6 L1635.1,1534.4 L1635.1,1534.4 Z M1855.6,1630.1 L1794,1630.1 L1856.9,1693 L1918.5,1693 L1855.6,1630.1 L1855.6,1630.1 Z M1794,1627.9 L1855.6,1627.9 L1918.5,1565 L1856.9,1565 L1794,1627.9 L1794,1627.9 Z M1921.1,1565.6 L1857.7,1629 L1921.1,1692.4 L1984.5,1629 L1921.1,1565.6 L1921.1,1565.6 Z M1856.1,1693.8 L1793.2,1630.9 L1793.2,1692.5 L1856.1,1755.4 L1856.1,1693.8 L1856.1,1693.8 Z M1793.2,1627.1 L1856.1,1564.2 L1856.1,1502.6 L1793.2,1565.5 L1793.2,1627.1 L1793.2,1627.1 Z M1857.2,1563.8 L1919.6,1563.8 L1947.4,1536 L1885,1473.6 L1857.2,1501.4 L1857.2,1563.8 L1857.2,1563.8 Z M1949.1,1534.4 L1949.1,1534.4 L1949.1,1534.4 L1976.9,1506.6 L1976.9,1444.2 L1914.5,1444.2 L1886.7,1472 L1886.7,1472 L1949.1,1534.4 L1949.1,1534.4 Z M1792.5,1435.4 L1856.3,1499.2 L1883.5,1472 L1792.1,1380.6 L1700.7,1472 L1727.9,1499.2 L1791.7,1435.4 L1792.1,1435 L1792.5,1435.4 L1792.5,1435.4 Z M1855.5,1500 L1792.1,1436.6 L1728.7,1500 L1792.1,1563.4 L1855.5,1500 L1855.5,1500 Z M1793.7,1379 L1885.1,1470.4 L1912.3,1443.2 L1848.5,1379.4 L1848.1,1379 L1848.5,1378.6 L1912.3,1314.8 L1885.1,1287.6 L1793.7,1379 L1793.7,1379 Z M1790.9,1692.5 L1790.9,1630.9 L1728,1693.8 L1728,1755.4 L1790.9,1692.5 L1790.9,1692.5 Z M1792.1,1821.4 L1855.5,1758 L1792.1,1694.6 L1728.7,1758 L1792.1,1821.4 L1792.1,1821.4 Z M1228.5,1627.9 L1290.1,1627.9 L1227.2,1565 L1165.6,1565 L1228.5,1627.9 L1228.5,1627.9 Z M1290.1,1630.1 L1228.5,1630.1 L1165.6,1693 L1227.2,1693 L1290.1,1630.1 L1290.1,1630.1 Z M1098.5,1628.6 L1162.3,1564.8 L1135.1,1537.6 L1043.7,1629 L1135.1,1720.4 L1162.3,1693.2 L1098.5,1629.4 L1098.1,1629 L1098.5,1628.6 L1098.5,1628.6 Z M1164.5,1563.8 L1226.9,1563.8 L1226.9,1501.4 L1199.1,1473.6 L1136.7,1536 L1164.5,1563.8 L1164.5,1563.8 Z M1228,1564.2 L1290.9,1627.1 L1290.9,1565.5 L1228,1502.6 L1228,1564.2 L1228,1564.2 Z M1226.9,1694.2 L1164.5,1694.2 L1136.7,1722 L1199.1,1784.4 L1199.1,1784.4 L1226.9,1756.6 L1226.9,1694.2 L1226.9,1694.2 Z M1163.1,1565.6 L1099.7,1629 L1163.1,1692.4 L1226.5,1629 L1163.1,1565.6 L1163.1,1565.6 Z M1042.1,1627.4 L1133.5,1536 L1106.3,1508.8 L1042.5,1572.6 L1042.1,1573 L1041.7,1572.6 L977.9,1508.8 L950.7,1536 L1042.1,1627.4 L1042.1,1627.4 Z M1135.1,1534.4 L1135.1,1534.4 L1135.1,1534.4 L1197.5,1472 L1169.7,1444.2 L1107.3,1444.2 L1107.3,1506.6 L1135.1,1534.4 L1135.1,1534.4 Z M1355.6,1630.1 L1294,1630.1 L1356.9,1693 L1418.5,1693 L1355.6,1630.1 L1355.6,1630.1 Z M1294,1627.9 L1355.6,1627.9 L1418.5,1565 L1356.9,1565 L1294,1627.9 L1294,1627.9 Z M1484.5,1629 L1421.1,1565.6 L1357.7,1629 L1421.1,1692.4 L1484.5,1629 L1484.5,1629 Z M1421.9,1564.8 L1485.7,1628.6 L1486.1,1629 L1485.7,1629.4 L1421.9,1693.2 L1449.1,1720.4 L1540.5,1629 L1449.1,1537.6 L1421.9,1564.8 L1421.9,1564.8 Z M1356.1,1693.8 L1293.2,1630.9 L1293.2,1692.5 L1356.1,1755.4 L1356.1,1693.8 L1356.1,1693.8 Z M1293.2,1627.1 L1356.1,1564.2 L1356.1,1502.6 L1293.2,1565.5 L1293.2,1627.1 L1293.2,1627.1 Z M1357.2,1563.8 L1419.6,1563.8 L1447.4,1536 L1385,1473.6 L1357.2,1501.4 L1357.2,1563.8 L1357.2,1563.8 Z M1449.1,1534.4 L1449.1,1534.4 L1449.1,1534.4 L1476.9,1506.6 L1476.9,1444.2 L1414.5,1444.2 L1386.7,1472 L1386.7,1472 L1449.1,1534.4 L1449.1,1534.4 Z M1292.5,1435.4 L1356.3,1499.2 L1383.5,1472 L1292.1,1380.6 L1200.7,1472 L1227.9,1499.2 L1291.7,1435.4 L1292.1,1435 L1292.5,1435.4 L1292.5,1435.4 Z M1355.5,1500 L1292.1,1436.6 L1228.7,1500 L1292.1,1563.4 L1355.5,1500 L1355.5,1500 Z M1293.7,1379 L1385.1,1470.4 L1412.3,1443.2 L1348.5,1379.4 L1348.1,1379 L1348.5,1378.6 L1412.3,1314.8 L1385.1,1287.6 L1293.7,1379 L1293.7,1379 Z M1290.9,1692.5 L1290.9,1630.9 L1228,1693.8 L1228,1755.4 L1290.9,1692.5 L1290.9,1692.5 Z M1292.1,1821.4 L1355.5,1758 L1292.1,1694.6 L1228.7,1758 L1292.1,1821.4 L1292.1,1821.4 Z M728.5,1627.9 L790.1,1627.9 L727.2,1565 L665.6,1565 L728.5,1627.9 L728.5,1627.9 Z M790.1,1630.1 L728.5,1630.1 L665.6,1693 L727.2,1693 L790.1,1630.1 L790.1,1630.1 Z M598.5,1628.6 L662.3,1564.8 L635.1,1537.6 L543.7,1629 L635.1,1720.4 L662.3,1693.2 L598.5,1629.4 L598.1,1629 L598.5,1628.6 L598.5,1628.6 Z M664.5,1563.8 L726.9,1563.8 L726.9,1501.4 L699.1,1473.6 L636.7,1536 L664.5,1563.8 L664.5,1563.8 Z M728,1564.2 L790.9,1627.1 L790.9,1565.5 L728,1502.6 L728,1564.2 L728,1564.2 Z M726.9,1694.2 L664.5,1694.2 L636.7,1722 L699.1,1784.4 L699.1,1784.4 L726.9,1756.6 L726.9,1694.2 L726.9,1694.2 Z M663.1,1565.6 L599.7,1629 L663.1,1692.4 L726.5,1629 L663.1,1565.6 L663.1,1565.6 Z M542.1,1627.4 L633.5,1536 L606.3,1508.8 L542.5,1572.6 L542.1,1573 L541.7,1572.6 L477.9,1508.8 L450.7,1536 L542.1,1627.4 L542.1,1627.4 Z M635.1,1534.4 L635.1,1534.4 L635.1,1534.4 L697.5,1472 L669.7,1444.2 L607.3,1444.2 L607.3,1506.6 L635.1,1534.4 L635.1,1534.4 Z M855.6,1630.1 L794,1630.1 L856.9,1693 L918.5,1693 L855.6,1630.1 L855.6,1630.1 Z M794,1627.9 L855.6,1627.9 L918.5,1565 L856.9,1565 L794,1627.9 L794,1627.9 Z M984.5,1629 L921.1,1565.6 L857.7,1629 L921.1,1692.4 L984.5,1629 L984.5,1629 Z M921.9,1564.8 L985.7,1628.6 L986.1,1629 L985.7,1629.4 L921.9,1693.2 L949.1,1720.4 L1040.5,1629 L949.1,1537.6 L921.9,1564.8 L921.9,1564.8 Z M856.1,1693.8 L793.2,1630.9 L793.2,1692.5 L856.1,1755.4 L856.1,1693.8 L856.1,1693.8 Z M793.2,1627.1 L856.1,1564.2 L856.1,1502.6 L793.2,1565.5 L793.2,1627.1 L793.2,1627.1 Z M857.2,1563.8 L919.6,1563.8 L947.4,1536 L885,1473.6 L857.2,1501.4 L857.2,1563.8 L857.2,1563.8 Z M949.1,1534.4 L949.1,1534.4 L949.1,1534.4 L976.9,1506.6 L976.9,1444.2 L914.5,1444.2 L886.7,1472 L886.7,1472 L949.1,1534.4 L949.1,1534.4 Z M792.5,1435.4 L856.3,1499.2 L883.5,1472 L792.1,1380.6 L700.7,1472 L727.9,1499.2 L791.7,1435.4 L792.1,1435 L792.5,1435.4 L792.5,1435.4 Z M855.5,1500 L792.1,1436.6 L728.7,1500 L792.1,1563.4 L855.5,1500 L855.5,1500 Z M793.7,1379 L885.1,1470.4 L912.3,1443.2 L848.5,1379.4 L848.1,1379 L848.5,1378.6 L912.3,1314.8 L885.1,1287.6 L793.7,1379 L793.7,1379 Z M790.9,1692.5 L790.9,1630.9 L728,1693.8 L728,1755.4 L790.9,1692.5 L790.9,1692.5 Z M792.1,1821.4 L855.5,1758 L792.1,1694.6 L728.7,1758 L792.1,1821.4 L792.1,1821.4 Z M228.5,1627.9 L290.1,1627.9 L227.2,1565 L165.6,1565 L228.5,1627.9 L228.5,1627.9 Z M290.1,1630.1 L228.5,1630.1 L165.6,1693 L227.2,1693 L290.1,1630.1 L290.1,1630.1 Z M98.5,1628.6 L162.3,1564.8 L135.1,1537.6 L43.7,1629 L135.1,1720.4 L162.3,1693.2 L98.5,1629.4 L98.1,1629 L98.5,1628.6 L98.5,1628.6 Z M164.5,1563.8 L226.9,1563.8 L226.9,1501.4 L199.1,1473.6 L136.7,1536 L164.5,1563.8 L164.5,1563.8 Z M228,1564.2 L290.9,1627.1 L290.9,1565.5 L228,1502.6 L228,1564.2 L228,1564.2 Z M226.9,1694.2 L164.5,1694.2 L136.7,1722 L199.1,1784.4 L199.1,1784.4 L226.9,1756.6 L226.9,1694.2 L226.9,1694.2 Z M163.1,1565.6 L99.7,1629 L163.1,1692.4 L226.5,1629 L163.1,1565.6 L163.1,1565.6 Z M135.1,1534.4 L135.1,1534.4 L135.1,1534.4 L197.5,1472 L169.7,1444.2 L107.3,1444.2 L107.3,1506.6 L135.1,1534.4 L135.1,1534.4 Z M355.6,1630.1 L294,1630.1 L356.9,1693 L418.5,1693 L355.6,1630.1 L355.6,1630.1 Z M294,1627.9 L355.6,1627.9 L418.5,1565 L356.9,1565 L294,1627.9 L294,1627.9 Z M484.5,1629 L421.1,1565.6 L357.7,1629 L421.1,1692.4 L484.5,1629 L484.5,1629 Z M421.9,1564.8 L485.7,1628.6 L486.1,1629 L485.7,1629.4 L421.9,1693.2 L449.1,1720.4 L540.5,1629 L449.1,1537.6 L421.9,1564.8 L421.9,1564.8 Z M356.1,1693.8 L293.2,1630.9 L293.2,1692.5 L356.1,1755.4 L356.1,1693.8 L356.1,1693.8 Z M293.2,1627.1 L356.1,1564.2 L356.1,1502.6 L293.2,1565.5 L293.2,1627.1 L293.2,1627.1 Z M357.2,1563.8 L419.6,1563.8 L447.4,1536 L385,1473.6 L357.2,1501.4 L357.2,1563.8 L357.2,1563.8 Z M449.1,1534.4 L449.1,1534.4 L449.1,1534.4 L476.9,1506.6 L476.9,1444.2 L414.5,1444.2 L386.7,1472 L386.7,1472 L449.1,1534.4 L449.1,1534.4 Z M292.5,1435.4 L356.3,1499.2 L383.5,1472 L292.1,1380.6 L200.7,1472 L227.9,1499.2 L291.7,1435.4 L292.1,1435 L292.5,1435.4 L292.5,1435.4 Z M355.5,1500 L292.1,1436.6 L228.7,1500 L292.1,1563.4 L355.5,1500 L355.5,1500 Z M293.7,1379 L385.1,1470.4 L412.3,1443.2 L348.5,1379.4 L348.1,1379 L348.5,1378.6 L412.3,1314.8 L385.1,1287.6 L293.7,1379 L293.7,1379 Z M290.9,1692.5 L290.9,1630.9 L228,1693.8 L228,1755.4 L290.9,1692.5 L290.9,1692.5 Z M292.1,1821.4 L355.5,1758 L292.1,1694.6 L228.7,1758 L292.1,1821.4 L292.1,1821.4 Z M1976.9,1313.8 L1976.9,1251.4 L1949.1,1223.6 L1886.7,1286 L1886.7,1286 L1914.5,1313.8 L1976.9,1313.8 L1976.9,1313.8 Z M1913.1,1315.6 L1849.7,1379 L1913.1,1442.4 L1976.5,1379 L1913.1,1315.6 L1913.1,1315.6 Z M1792.1,1377.4 L1883.5,1286 L1856.3,1258.8 L1792.5,1322.6 L1792.1,1323 L1791.7,1322.6 L1727.9,1258.8 L1700.7,1286 L1792.1,1377.4 L1792.1,1377.4 Z M1947.5,1222 L1947.5,1222 L1947.5,1222 L1919.7,1194.2 L1857.3,1194.2 L1857.3,1256.6 L1885.1,1284.4 L1947.5,1222 L1947.5,1222 Z M1478.5,1377.9 L1540.1,1377.9 L1477.2,1315 L1415.6,1315 L1478.5,1377.9 L1478.5,1377.9 Z M1540.1,1380.1 L1478.5,1380.1 L1415.6,1443 L1477.2,1443 L1540.1,1380.1 L1540.1,1380.1 Z M1414.5,1313.8 L1476.9,1313.8 L1476.9,1251.4 L1449.1,1223.6 L1386.7,1286 L1386.7,1286 L1414.5,1313.8 L1414.5,1313.8 Z M1478,1314.2 L1540.9,1377.1 L1540.9,1315.5 L1478,1252.6 L1478,1314.2 L1478,1314.2 Z M1413.1,1315.6 L1349.7,1379 L1413.1,1442.4 L1476.5,1379 L1413.1,1315.6 L1413.1,1315.6 Z M1292.1,1377.4 L1383.5,1286 L1356.3,1258.8 L1292.5,1322.6 L1292.1,1323 L1291.7,1322.6 L1227.9,1258.8 L1200.7,1286 L1292.1,1377.4 L1292.1,1377.4 Z M1605.6,1380.1 L1544,1380.1 L1606.9,1443 L1668.5,1443 L1605.6,1380.1 L1605.6,1380.1 Z M1544,1377.9 L1605.6,1377.9 L1668.5,1315 L1606.9,1315 L1544,1377.9 L1544,1377.9 Z M1734.5,1379 L1671.1,1315.6 L1607.7,1379 L1671.1,1442.4 L1734.5,1379 L1734.5,1379 Z M1671.9,1314.8 L1735.7,1378.6 L1736.1,1379 L1735.7,1379.4 L1671.9,1443.2 L1699.1,1470.4 L1790.5,1379 L1699.1,1287.6 L1671.9,1314.8 L1671.9,1314.8 Z M1606.1,1443.8 L1543.2,1380.9 L1543.2,1442.5 L1606.1,1505.4 L1606.1,1443.8 L1606.1,1443.8 Z M1543.2,1377.1 L1606.1,1314.2 L1606.1,1252.6 L1543.2,1315.5 L1543.2,1377.1 L1543.2,1377.1 Z M1607.2,1313.8 L1669.6,1313.8 L1697.4,1286 L1635,1223.6 L1607.2,1251.4 L1607.2,1313.8 L1607.2,1313.8 Z M1542.5,1185.4 L1606.3,1249.2 L1633.5,1222 L1542.1,1130.6 L1542.1,1130.6 L1450.7,1222 L1477.9,1249.2 L1541.7,1185.4 L1542.1,1185 L1542.5,1185.4 L1542.5,1185.4 Z M1605.5,1250 L1542.1,1186.6 L1478.7,1250 L1542.1,1313.4 L1605.5,1250 L1605.5,1250 Z M1447.5,1222 L1447.5,1222 L1447.5,1222 L1419.7,1194.2 L1357.3,1194.2 L1357.3,1256.6 L1385.1,1284.4 L1447.5,1222 L1447.5,1222 Z M1540.9,1442.5 L1540.9,1380.9 L1478,1443.8 L1478,1505.4 L1540.9,1442.5 L1540.9,1442.5 Z M1542.1,1571.4 L1605.5,1508 L1542.1,1444.6 L1478.7,1508 L1542.1,1571.4 L1542.1,1571.4 Z M978.5,1377.9 L1040.1,1377.9 L977.2,1315 L915.6,1315 L978.5,1377.9 L978.5,1377.9 Z M1040.1,1380.1 L978.5,1380.1 L915.6,1443 L977.2,1443 L1040.1,1380.1 L1040.1,1380.1 Z M914.5,1313.8 L976.9,1313.8 L976.9,1251.4 L949.1,1223.6 L886.7,1286 L914.5,1313.8 L914.5,1313.8 Z M978,1314.2 L1040.9,1377.1 L1040.9,1315.5 L978,1252.6 L978,1314.2 L978,1314.2 Z M913.1,1315.6 L849.7,1379 L913.1,1442.4 L976.5,1379 L913.1,1315.6 L913.1,1315.6 Z M792.1,1377.4 L883.5,1286 L856.3,1258.8 L792.5,1322.6 L792.1,1323 L791.7,1322.6 L727.9,1258.8 L700.7,1286 L792.1,1377.4 L792.1,1377.4 Z M1105.6,1380.1 L1044,1380.1 L1106.9,1443 L1168.5,1443 L1105.6,1380.1 L1105.6,1380.1 Z M1044,1377.9 L1105.6,1377.9 L1168.5,1315 L1106.9,1315 L1044,1377.9 L1044,1377.9 Z M1234.5,1379 L1171.1,1315.6 L1107.7,1379 L1171.1,1442.4 L1234.5,1379 L1234.5,1379 Z M1171.9,1314.8 L1235.7,1378.6 L1236.1,1379 L1235.7,1379.4 L1171.9,1443.2 L1199.1,1470.4 L1290.5,1379 L1199.1,1287.6 L1171.9,1314.8 L1171.9,1314.8 Z M1106.1,1443.8 L1043.2,1380.9 L1043.2,1442.5 L1106.1,1505.4 L1106.1,1443.8 L1106.1,1443.8 Z M1043.2,1377.1 L1106.1,1314.2 L1106.1,1252.6 L1043.2,1315.5 L1043.2,1377.1 L1043.2,1377.1 Z M1107.2,1313.8 L1169.6,1313.8 L1197.4,1286 L1135,1223.6 L1107.2,1251.4 L1107.2,1313.8 L1107.2,1313.8 Z M1042.5,1185.4 L1106.3,1249.2 L1133.5,1222 L1042.1,1130.6 L950.7,1222 L977.9,1249.2 L1041.7,1185.4 L1042.1,1185 L1042.5,1185.4 L1042.5,1185.4 Z M1105.5,1250 L1042.1,1186.6 L978.7,1250 L1042.1,1313.4 L1105.5,1250 L1105.5,1250 Z M947.5,1222 L947.5,1222 L947.5,1222 L919.7,1194.2 L857.3,1194.2 L857.3,1256.6 L885.1,1284.4 L947.5,1222 L947.5,1222 Z M1040.9,1442.5 L1040.9,1380.9 L978,1443.8 L978,1505.4 L1040.9,1442.5 L1040.9,1442.5 Z M1042.1,1571.4 L1105.5,1508 L1042.1,1444.6 L978.7,1508 L1042.1,1571.4 L1042.1,1571.4 Z M478.5,1377.9 L540.1,1377.9 L477.2,1315 L415.6,1315 L478.5,1377.9 L478.5,1377.9 Z M540.1,1380.1 L478.5,1380.1 L415.6,1443 L477.2,1443 L540.1,1380.1 L540.1,1380.1 Z M414.5,1313.8 L476.9,1313.8 L476.9,1251.4 L449.1,1223.6 L386.7,1286 L386.7,1286 L414.5,1313.8 L414.5,1313.8 Z M478,1314.2 L540.9,1377.1 L540.9,1315.5 L478,1252.6 L478,1314.2 L478,1314.2 Z M413.1,1315.6 L349.7,1379 L413.1,1442.4 L476.5,1379 L413.1,1315.6 L413.1,1315.6 Z M292.1,1377.4 L383.5,1286 L356.3,1258.8 L292.5,1322.6 L292.1,1323 L291.7,1322.6 L227.9,1258.8 L200.7,1286 L292.1,1377.4 L292.1,1377.4 Z M605.6,1380.1 L544,1380.1 L606.9,1443 L668.5,1443 L605.6,1380.1 L605.6,1380.1 Z M544,1377.9 L605.6,1377.9 L668.5,1315 L606.9,1315 L544,1377.9 L544,1377.9 Z M734.5,1379 L671.1,1315.6 L607.7,1379 L671.1,1442.4 L734.5,1379 L734.5,1379 Z M671.9,1314.8 L735.7,1378.6 L736.1,1379 L735.7,1379.4 L671.9,1443.2 L699.1,1470.4 L790.5,1379 L699.1,1287.6 L671.9,1314.8 L671.9,1314.8 Z M606.1,1443.8 L543.2,1380.9 L543.2,1442.5 L606.1,1505.4 L606.1,1443.8 L606.1,1443.8 Z M543.2,1377.1 L606.1,1314.2 L606.1,1252.6 L543.2,1315.5 L543.2,1377.1 L543.2,1377.1 Z M607.2,1313.8 L669.6,1313.8 L697.4,1286 L635,1223.6 L607.2,1251.4 L607.2,1313.8 L607.2,1313.8 Z M542.5,1185.4 L606.3,1249.2 L633.5,1222 L542.1,1130.6 L542.1,1130.6 L450.7,1222 L477.9,1249.2 L541.7,1185.4 L542.1,1185 L542.5,1185.4 L542.5,1185.4 Z M605.5,1250 L542.1,1186.6 L478.7,1250 L542.1,1313.4 L605.5,1250 L605.5,1250 Z M447.5,1222 L447.5,1222 L447.5,1222 L419.7,1194.2 L357.3,1194.2 L357.3,1256.6 L385.1,1284.4 L447.5,1222 L447.5,1222 Z M540.9,1442.5 L540.9,1380.9 L478,1443.8 L478,1505.4 L540.9,1442.5 L540.9,1442.5 Z M542.1,1571.4 L605.5,1508 L542.1,1444.6 L478.7,1508 L542.1,1571.4 L542.1,1571.4 Z M105.6,1380.1 L44,1380.1 L106.9,1443 L168.5,1443 L105.6,1380.1 L105.6,1380.1 Z M44,1377.9 L105.6,1377.9 L168.5,1315 L106.9,1315 L44,1377.9 L44,1377.9 Z M234.5,1379 L171.1,1315.6 L107.7,1379 L171.1,1442.4 L234.5,1379 L234.5,1379 Z M171.9,1314.8 L235.7,1378.6 L236.1,1379 L235.7,1379.4 L171.9,1443.2 L199.1,1470.4 L290.5,1379 L199.1,1287.6 L171.9,1314.8 L171.9,1314.8 Z M106.1,1443.8 L43.2,1380.9 L43.2,1442.5 L106.1,1505.4 L106.1,1443.8 L106.1,1443.8 Z M43.2,1377.1 L106.1,1314.2 L106.1,1252.6 L43.2,1315.5 L43.2,1377.1 L43.2,1377.1 Z M107.2,1313.8 L169.6,1313.8 L197.4,1286 L135,1223.6 L107.2,1251.4 L107.2,1313.8 L107.2,1313.8 Z M1728.5,1127.9 L1790.1,1127.9 L1727.2,1065 L1665.6,1065 L1728.5,1127.9 L1728.5,1127.9 Z M1790.1,1130.1 L1728.5,1130.1 L1665.6,1193 L1727.2,1193 L1790.1,1130.1 L1790.1,1130.1 Z M1598.5,1128.6 L1662.3,1064.8 L1635.1,1037.6 L1543.7,1129 L1635.1,1220.4 L1662.3,1193.2 L1598.5,1129.4 L1598.1,1129 L1598.5,1128.6 L1598.5,1128.6 Z M1664.5,1063.8 L1726.9,1063.8 L1726.9,1001.4 L1699.1,973.6 L1636.7,1036 L1664.5,1063.8 L1664.5,1063.8 Z M1728,1064.2 L1790.9,1127.1 L1790.9,1065.5 L1728,1002.6 L1728,1064.2 L1728,1064.2 Z M1726.9,1194.2 L1664.5,1194.2 L1636.7,1222 L1699.1,1284.4 L1699.1,1284.4 L1726.9,1256.6 L1726.9,1194.2 L1726.9,1194.2 Z M1663.1,1065.6 L1599.7,1129 L1663.1,1192.4 L1726.5,1129 L1663.1,1065.6 L1663.1,1065.6 Z M1542.1,1127.4 L1633.5,1036 L1606.3,1008.8 L1542.5,1072.6 L1542.1,1073 L1541.7,1072.6 L1477.9,1008.8 L1450.7,1036 L1542.1,1127.4 L1542.1,1127.4 Z M1635.1,1034.4 L1635.1,1034.4 L1635.1,1034.4 L1697.5,972 L1669.7,944.2 L1607.3,944.2 L1607.3,1006.6 L1635.1,1034.4 L1635.1,1034.4 Z M1855.6,1130.1 L1794,1130.1 L1856.9,1193 L1918.5,1193 L1855.6,1130.1 L1855.6,1130.1 Z M1794,1127.9 L1855.6,1127.9 L1918.5,1065 L1856.9,1065 L1794,1127.9 L1794,1127.9 Z M1921.1,1065.6 L1857.7,1129 L1921.1,1192.4 L1984.5,1129 L1921.1,1065.6 L1921.1,1065.6 Z M1856.1,1193.8 L1793.2,1130.9 L1793.2,1192.5 L1856.1,1255.4 L1856.1,1193.8 L1856.1,1193.8 Z M1793.2,1127.1 L1856.1,1064.2 L1856.1,1002.6 L1793.2,1065.5 L1793.2,1127.1 L1793.2,1127.1 Z M1857.2,1063.8 L1919.6,1063.8 L1947.4,1036 L1885,973.6 L1857.2,1001.4 L1857.2,1063.8 L1857.2,1063.8 Z M1949.1,1034.4 L1949.1,1034.4 L1949.1,1034.4 L1976.9,1006.6 L1976.9,944.2 L1914.5,944.2 L1886.7,972 L1886.7,972 L1949.1,1034.4 L1949.1,1034.4 Z M1792.5,935.4 L1856.3,999.2 L1883.5,972 L1792.1,880.6 L1700.7,972 L1727.9,999.2 L1791.7,935.4 L1792.1,935 L1792.5,935.4 L1792.5,935.4 Z M1855.5,1000 L1792.1,936.6 L1728.7,1000 L1792.1,1063.4 L1855.5,1000 L1855.5,1000 Z M1793.7,879 L1885.1,970.4 L1912.3,943.2 L1848.5,879.4 L1848.1,879 L1848.5,878.6 L1912.3,814.8 L1885.1,787.6 L1793.7,879 L1793.7,879 Z M1790.9,1192.5 L1790.9,1130.9 L1728,1193.8 L1728,1255.4 L1790.9,1192.5 L1790.9,1192.5 Z M1792.1,1321.4 L1855.5,1258 L1792.1,1194.6 L1728.7,1258 L1792.1,1321.4 L1792.1,1321.4 Z M1228.5,1127.9 L1290.1,1127.9 L1227.2,1065 L1165.6,1065 L1228.5,1127.9 L1228.5,1127.9 Z M1290.1,1130.1 L1228.5,1130.1 L1165.6,1193 L1227.2,1193 L1290.1,1130.1 L1290.1,1130.1 Z M1098.5,1128.6 L1162.3,1064.8 L1135.1,1037.6 L1043.7,1129 L1135.1,1220.4 L1162.3,1193.2 L1098.5,1129.4 L1098.1,1129 L1098.5,1128.6 L1098.5,1128.6 Z M1164.5,1063.8 L1226.9,1063.8 L1226.9,1001.4 L1199.1,973.6 L1136.7,1036 L1164.5,1063.8 L1164.5,1063.8 Z M1228,1064.2 L1290.9,1127.1 L1290.9,1065.5 L1228,1002.6 L1228,1064.2 L1228,1064.2 Z M1226.9,1194.2 L1164.5,1194.2 L1136.7,1222 L1199.1,1284.4 L1199.1,1284.4 L1226.9,1256.6 L1226.9,1194.2 L1226.9,1194.2 Z M1163.1,1065.6 L1099.7,1129 L1163.1,1192.4 L1226.5,1129 L1163.1,1065.6 L1163.1,1065.6 Z M1042.1,1127.4 L1133.5,1036 L1106.3,1008.8 L1042.5,1072.6 L1042.1,1073 L1041.7,1072.6 L977.9,1008.8 L950.7,1036 L1042.1,1127.4 L1042.1,1127.4 Z M1135.1,1034.4 L1135.1,1034.4 L1135.1,1034.4 L1197.5,972 L1169.7,944.2 L1107.3,944.2 L1107.3,1006.6 L1135.1,1034.4 L1135.1,1034.4 Z M1355.6,1130.1 L1294,1130.1 L1356.9,1193 L1418.5,1193 L1355.6,1130.1 L1355.6,1130.1 Z M1294,1127.9 L1355.6,1127.9 L1418.5,1065 L1356.9,1065 L1294,1127.9 L1294,1127.9 Z M1484.5,1129 L1421.1,1065.6 L1357.7,1129 L1421.1,1192.4 L1484.5,1129 L1484.5,1129 Z M1421.9,1064.8 L1485.7,1128.6 L1486.1,1129 L1485.7,1129.4 L1421.9,1193.2 L1449.1,1220.4 L1540.5,1129 L1449.1,1037.6 L1421.9,1064.8 L1421.9,1064.8 Z M1356.1,1193.8 L1293.2,1130.9 L1293.2,1192.5 L1356.1,1255.4 L1356.1,1193.8 L1356.1,1193.8 Z M1293.2,1127.1 L1356.1,1064.2 L1356.1,1002.6 L1293.2,1065.5 L1293.2,1127.1 L1293.2,1127.1 Z M1357.2,1063.8 L1419.6,1063.8 L1447.4,1036 L1385,973.6 L1357.2,1001.4 L1357.2,1063.8 L1357.2,1063.8 Z M1449.1,1034.4 L1449.1,1034.4 L1449.1,1034.4 L1476.9,1006.6 L1476.9,944.2 L1414.5,944.2 L1386.7,972 L1386.7,972 L1449.1,1034.4 L1449.1,1034.4 Z M1292.5,935.4 L1356.3,999.2 L1383.5,972 L1292.1,880.6 L1200.7,972 L1227.9,999.2 L1291.7,935.4 L1292.1,935 L1292.5,935.4 L1292.5,935.4 Z M1355.5,1000 L1292.1,936.6 L1228.7,1000 L1292.1,1063.4 L1355.5,1000 L1355.5,1000 Z M1293.7,879 L1385.1,970.4 L1412.3,943.2 L1348.5,879.4 L1348.1,879 L1348.5,878.6 L1412.3,814.8 L1385.1,787.6 L1293.7,879 L1293.7,879 Z M1290.9,1192.5 L1290.9,1130.9 L1228,1193.8 L1228,1255.4 L1290.9,1192.5 L1290.9,1192.5 Z M1292.1,1321.4 L1355.5,1258 L1292.1,1194.6 L1228.7,1258 L1292.1,1321.4 L1292.1,1321.4 Z M728.5,1127.9 L790.1,1127.9 L727.2,1065 L665.6,1065 L728.5,1127.9 L728.5,1127.9 Z M790.1,1130.1 L728.5,1130.1 L665.6,1193 L727.2,1193 L790.1,1130.1 L790.1,1130.1 Z M598.5,1128.6 L662.3,1064.8 L635.1,1037.6 L543.7,1129 L635.1,1220.4 L662.3,1193.2 L598.5,1129.4 L598.1,1129 L598.5,1128.6 L598.5,1128.6 Z M664.5,1063.8 L726.9,1063.8 L726.9,1001.4 L699.1,973.6 L636.7,1036 L664.5,1063.8 L664.5,1063.8 Z M728,1064.2 L790.9,1127.1 L790.9,1065.5 L728,1002.6 L728,1064.2 L728,1064.2 Z M726.9,1194.2 L664.5,1194.2 L636.7,1222 L699.1,1284.4 L699.1,1284.4 L726.9,1256.6 L726.9,1194.2 L726.9,1194.2 Z M663.1,1065.6 L599.7,1129 L663.1,1192.4 L726.5,1129 L663.1,1065.6 L663.1,1065.6 Z M542.1,1127.4 L633.5,1036 L606.3,1008.8 L542.5,1072.6 L542.1,1073 L541.7,1072.6 L477.9,1008.8 L450.7,1036 L542.1,1127.4 L542.1,1127.4 Z M635.1,1034.4 L635.1,1034.4 L635.1,1034.4 L697.5,972 L669.7,944.2 L607.3,944.2 L607.3,1006.6 L635.1,1034.4 L635.1,1034.4 Z M855.6,1130.1 L794,1130.1 L856.9,1193 L918.5,1193 L855.6,1130.1 L855.6,1130.1 Z M794,1127.9 L855.6,1127.9 L918.5,1065 L856.9,1065 L794,1127.9 L794,1127.9 Z M984.5,1129 L921.1,1065.6 L857.7,1129 L921.1,1192.4 L984.5,1129 L984.5,1129 Z M921.9,1064.8 L985.7,1128.6 L986.1,1129 L985.7,1129.4 L921.9,1193.2 L949.1,1220.4 L1040.5,1129 L949.1,1037.6 L921.9,1064.8 L921.9,1064.8 Z M856.1,1193.8 L793.2,1130.9 L793.2,1192.5 L856.1,1255.4 L856.1,1193.8 L856.1,1193.8 Z M793.2,1127.1 L856.1,1064.2 L856.1,1002.6 L793.2,1065.5 L793.2,1127.1 L793.2,1127.1 Z M857.2,1063.8 L919.6,1063.8 L947.4,1036 L885,973.6 L857.2,1001.4 L857.2,1063.8 L857.2,1063.8 Z M949.1,1034.4 L949.1,1034.4 L949.1,1034.4 L976.9,1006.6 L976.9,944.2 L914.5,944.2 L886.7,972 L886.7,972 L949.1,1034.4 L949.1,1034.4 Z M792.5,935.4 L856.3,999.2 L883.5,972 L792.1,880.6 L700.7,972 L727.9,999.2 L791.7,935.4 L792.1,935 L792.5,935.4 L792.5,935.4 Z M855.5,1000 L792.1,936.6 L728.7,1000 L792.1,1063.4 L855.5,1000 L855.5,1000 Z M793.7,879 L885.1,970.4 L912.3,943.2 L848.5,879.4 L848.1,879 L848.5,878.6 L912.3,814.8 L885.1,787.6 L793.7,879 L793.7,879 Z M790.9,1192.5 L790.9,1130.9 L728,1193.8 L728,1255.4 L790.9,1192.5 L790.9,1192.5 Z M792.1,1321.4 L855.5,1258 L792.1,1194.6 L728.7,1258 L792.1,1321.4 L792.1,1321.4 Z M228.5,1127.9 L290.1,1127.9 L227.2,1065 L165.6,1065 L228.5,1127.9 L228.5,1127.9 Z M290.1,1130.1 L228.5,1130.1 L165.6,1193 L227.2,1193 L290.1,1130.1 L290.1,1130.1 Z M98.5,1128.6 L162.3,1064.8 L135.1,1037.6 L43.7,1129 L135.1,1220.4 L162.3,1193.2 L98.5,1129.4 L98.1,1129 L98.5,1128.6 L98.5,1128.6 Z M164.5,1063.8 L226.9,1063.8 L226.9,1001.4 L199.1,973.6 L136.7,1036 L164.5,1063.8 L164.5,1063.8 Z M228,1064.2 L290.9,1127.1 L290.9,1065.5 L228,1002.6 L228,1064.2 L228,1064.2 Z M226.9,1194.2 L164.5,1194.2 L136.7,1222 L199.1,1284.4 L199.1,1284.4 L226.9,1256.6 L226.9,1194.2 L226.9,1194.2 Z M163.1,1065.6 L99.7,1129 L163.1,1192.4 L226.5,1129 L163.1,1065.6 L163.1,1065.6 Z M135.1,1034.4 L135.1,1034.4 L135.1,1034.4 L197.5,972 L169.7,944.2 L107.3,944.2 L107.3,1006.6 L135.1,1034.4 L135.1,1034.4 Z M355.6,1130.1 L294,1130.1 L356.9,1193 L418.5,1193 L355.6,1130.1 L355.6,1130.1 Z M294,1127.9 L355.6,1127.9 L418.5,1065 L356.9,1065 L294,1127.9 L294,1127.9 Z M484.5,1129 L421.1,1065.6 L357.7,1129 L421.1,1192.4 L484.5,1129 L484.5,1129 Z M421.9,1064.8 L485.7,1128.6 L486.1,1129 L485.7,1129.4 L421.9,1193.2 L449.1,1220.4 L540.5,1129 L449.1,1037.6 L421.9,1064.8 L421.9,1064.8 Z M356.1,1193.8 L293.2,1130.9 L293.2,1192.5 L356.1,1255.4 L356.1,1193.8 L356.1,1193.8 Z M293.2,1127.1 L356.1,1064.2 L356.1,1002.6 L293.2,1065.5 L293.2,1127.1 L293.2,1127.1 Z M357.2,1063.8 L419.6,1063.8 L447.4,1036 L385,973.6 L357.2,1001.4 L357.2,1063.8 L357.2,1063.8 Z M449.1,1034.4 L449.1,1034.4 L449.1,1034.4 L476.9,1006.6 L476.9,944.2 L414.5,944.2 L386.7,972 L386.7,972 L449.1,1034.4 L449.1,1034.4 Z M292.5,935.4 L356.3,999.2 L383.5,972 L292.1,880.6 L200.7,972 L227.9,999.2 L291.7,935.4 L292.1,935 L292.5,935.4 L292.5,935.4 Z M355.5,1000 L292.1,936.6 L228.7,1000 L292.1,1063.4 L355.5,1000 L355.5,1000 Z M293.7,879 L385.1,970.4 L412.3,943.2 L348.5,879.4 L348.1,879 L348.5,878.6 L412.3,814.8 L385.1,787.6 L293.7,879 L293.7,879 Z M290.9,1192.5 L290.9,1130.9 L228,1193.8 L228,1255.4 L290.9,1192.5 L290.9,1192.5 Z M292.1,1321.4 L355.5,1258 L292.1,1194.6 L228.7,1258 L292.1,1321.4 L292.1,1321.4 Z M1976.9,813.8 L1976.9,751.4 L1949.1,723.6 L1886.7,786 L1886.7,786 L1914.5,813.8 L1976.9,813.8 L1976.9,813.8 Z M1913.1,815.6 L1849.7,879 L1913.1,942.4 L1976.5,879 L1913.1,815.6 L1913.1,815.6 Z M1792.1,877.4 L1883.5,786 L1856.3,758.8 L1792.5,822.6 L1792.1,823 L1791.7,822.6 L1727.9,758.8 L1700.7,786 L1792.1,877.4 L1792.1,877.4 Z M1947.5,722 L1947.5,722 L1947.5,722 L1919.7,694.2 L1857.3,694.2 L1857.3,756.6 L1885.1,784.4 L1947.5,722 L1947.5,722 Z M1478.5,877.9 L1540.1,877.9 L1477.2,815 L1415.6,815 L1478.5,877.9 L1478.5,877.9 Z M1540.1,880.1 L1478.5,880.1 L1415.6,943 L1477.2,943 L1540.1,880.1 L1540.1,880.1 Z M1414.5,813.8 L1476.9,813.8 L1476.9,751.4 L1449.1,723.6 L1386.7,786 L1386.7,786 L1414.5,813.8 L1414.5,813.8 Z M1478,814.2 L1540.9,877.1 L1540.9,815.5 L1478,752.6 L1478,814.2 L1478,814.2 Z M1413.1,815.6 L1349.7,879 L1413.1,942.4 L1476.5,879 L1413.1,815.6 L1413.1,815.6 Z M1292.1,877.4 L1383.5,786 L1356.3,758.8 L1292.5,822.6 L1292.1,823 L1291.7,822.6 L1227.9,758.8 L1200.7,786 L1292.1,877.4 L1292.1,877.4 Z M1605.6,880.1 L1544,880.1 L1606.9,943 L1668.5,943 L1605.6,880.1 L1605.6,880.1 Z M1544,877.9 L1605.6,877.9 L1668.5,815 L1606.9,815 L1544,877.9 L1544,877.9 Z M1734.5,879 L1671.1,815.6 L1607.7,879 L1671.1,942.4 L1734.5,879 L1734.5,879 Z M1671.9,814.8 L1735.7,878.6 L1736.1,879 L1735.7,879.4 L1671.9,943.2 L1699.1,970.4 L1790.5,879 L1699.1,787.6 L1671.9,814.8 L1671.9,814.8 Z M1606.1,943.8 L1543.2,880.9 L1543.2,942.5 L1606.1,1005.4 L1606.1,943.8 L1606.1,943.8 Z M1543.2,877.1 L1606.1,814.2 L1606.1,752.6 L1543.2,815.5 L1543.2,877.1 L1543.2,877.1 Z M1607.2,813.8 L1669.6,813.8 L1697.4,786 L1635,723.6 L1607.2,751.4 L1607.2,813.8 L1607.2,813.8 Z M1542.5,685.4 L1606.3,749.2 L1633.5,722 L1542.1,630.6 L1542.1,630.6 L1450.7,722 L1477.9,749.2 L1541.7,685.4 L1542.1,685 L1542.5,685.4 L1542.5,685.4 Z M1605.5,750 L1542.1,686.6 L1478.7,750 L1542.1,813.4 L1605.5,750 L1605.5,750 Z M1447.5,722 L1447.5,722 L1447.5,722 L1419.7,694.2 L1357.3,694.2 L1357.3,756.6 L1385.1,784.4 L1447.5,722 L1447.5,722 Z M1540.9,942.5 L1540.9,880.9 L1478,943.8 L1478,1005.4 L1540.9,942.5 L1540.9,942.5 Z M1542.1,1071.4 L1605.5,1008 L1542.1,944.6 L1478.7,1008 L1542.1,1071.4 L1542.1,1071.4 Z M978.5,877.9 L1040.1,877.9 L977.2,815 L915.6,815 L978.5,877.9 L978.5,877.9 Z M1040.1,880.1 L978.5,880.1 L915.6,943 L977.2,943 L1040.1,880.1 L1040.1,880.1 Z M914.5,813.8 L976.9,813.8 L976.9,751.4 L949.1,723.6 L886.7,786 L886.7,786 L914.5,813.8 L914.5,813.8 Z M978,814.2 L1040.9,877.1 L1040.9,815.5 L978,752.6 L978,814.2 L978,814.2 Z M913.1,815.6 L849.7,879 L913.1,942.4 L976.5,879 L913.1,815.6 L913.1,815.6 Z M792.1,877.4 L883.5,786 L856.3,758.8 L792.5,822.6 L792.1,823 L791.7,822.6 L727.9,758.8 L700.7,786 L792.1,877.4 L792.1,877.4 Z M1105.6,880.1 L1044,880.1 L1106.9,943 L1168.5,943 L1105.6,880.1 L1105.6,880.1 Z M1044,877.9 L1105.6,877.9 L1168.5,815 L1106.9,815 L1044,877.9 L1044,877.9 Z M1234.5,879 L1171.1,815.6 L1107.7,879 L1171.1,942.4 L1234.5,879 L1234.5,879 Z M1171.9,814.8 L1235.7,878.6 L1236.1,879 L1235.7,879.4 L1171.9,943.2 L1199.1,970.4 L1290.5,879 L1199.1,787.6 L1171.9,814.8 L1171.9,814.8 Z M1106.1,943.8 L1043.2,880.9 L1043.2,942.5 L1106.1,1005.4 L1106.1,943.8 L1106.1,943.8 Z M1043.2,877.1 L1106.1,814.2 L1106.1,752.6 L1043.2,815.5 L1043.2,877.1 L1043.2,877.1 Z M1107.2,813.8 L1169.6,813.8 L1197.4,786 L1135,723.6 L1107.2,751.4 L1107.2,813.8 L1107.2,813.8 Z M1042.5,685.4 L1106.3,749.2 L1133.5,722 L1042.1,630.6 L1042.1,630.6 L950.7,722 L977.9,749.2 L1041.7,685.4 L1042.1,685 L1042.5,685.4 L1042.5,685.4 Z M1105.5,750 L1042.1,686.6 L978.7,750 L1042.1,813.4 L1105.5,750 L1105.5,750 Z M947.5,722 L947.5,722 L947.5,722 L919.7,694.2 L857.3,694.2 L857.3,756.6 L885.1,784.4 L947.5,722 L947.5,722 Z M1040.9,942.5 L1040.9,880.9 L978,943.8 L978,1005.4 L1040.9,942.5 L1040.9,942.5 Z M1042.1,1071.4 L1105.5,1008 L1042.1,944.6 L978.7,1008 L1042.1,1071.4 L1042.1,1071.4 Z M478.5,877.9 L540.1,877.9 L477.2,815 L415.6,815 L478.5,877.9 L478.5,877.9 Z M540.1,880.1 L478.5,880.1 L415.6,943 L477.2,943 L540.1,880.1 L540.1,880.1 Z M414.5,813.8 L476.9,813.8 L476.9,751.4 L449.1,723.6 L386.7,786 L386.7,786 L414.5,813.8 L414.5,813.8 Z M478,814.2 L540.9,877.1 L540.9,815.5 L478,752.6 L478,814.2 L478,814.2 Z M413.1,815.6 L349.7,879 L413.1,942.4 L476.5,879 L413.1,815.6 L413.1,815.6 Z M292.1,877.4 L383.5,786 L356.3,758.8 L292.5,822.6 L292.1,823 L291.7,822.6 L227.9,758.8 L200.7,786 L292.1,877.4 L292.1,877.4 Z M605.6,880.1 L544,880.1 L606.9,943 L668.5,943 L605.6,880.1 L605.6,880.1 Z M544,877.9 L605.6,877.9 L668.5,815 L606.9,815 L544,877.9 L544,877.9 Z M734.5,879 L671.1,815.6 L607.7,879 L671.1,942.4 L734.5,879 L734.5,879 Z M671.9,814.8 L735.7,878.6 L736.1,879 L735.7,879.4 L671.9,943.2 L699.1,970.4 L790.5,879 L699.1,787.6 L671.9,814.8 L671.9,814.8 Z M606.1,943.8 L543.2,880.9 L543.2,942.5 L606.1,1005.4 L606.1,943.8 L606.1,943.8 Z M543.2,877.1 L606.1,814.2 L606.1,752.6 L543.2,815.5 L543.2,877.1 L543.2,877.1 Z M607.2,813.8 L669.6,813.8 L697.4,786 L635,723.6 L607.2,751.4 L607.2,813.8 L607.2,813.8 Z M542.5,685.4 L606.3,749.2 L633.5,722 L542.1,630.6 L542.1,630.6 L450.7,722 L477.9,749.2 L541.7,685.4 L542.1,685 L542.5,685.4 L542.5,685.4 Z M605.5,750 L542.1,686.6 L478.7,750 L542.1,813.4 L605.5,750 L605.5,750 Z M447.5,722 L447.5,722 L447.5,722 L419.7,694.2 L357.3,694.2 L357.3,756.6 L385.1,784.4 L447.5,722 L447.5,722 Z M540.9,942.5 L540.9,880.9 L478,943.8 L478,1005.4 L540.9,942.5 L540.9,942.5 Z M542.1,1071.4 L605.5,1008 L542.1,944.6 L478.7,1008 L542.1,1071.4 L542.1,1071.4 Z M105.6,880.1 L44,880.1 L106.9,943 L168.5,943 L105.6,880.1 L105.6,880.1 Z M44,877.9 L105.6,877.9 L168.5,815 L106.9,815 L44,877.9 L44,877.9 Z M234.5,879 L171.1,815.6 L107.7,879 L171.1,942.4 L234.5,879 L234.5,879 Z M171.9,814.8 L235.7,878.6 L236.1,879 L235.7,879.4 L171.9,943.2 L199.1,970.4 L290.5,879 L199.1,787.6 L171.9,814.8 L171.9,814.8 Z M106.1,943.8 L43.2,880.9 L43.2,942.5 L106.1,1005.4 L106.1,943.8 L106.1,943.8 Z M43.2,877.1 L106.1,814.2 L106.1,752.6 L43.2,815.5 L43.2,877.1 L43.2,877.1 Z M107.2,813.8 L169.6,813.8 L197.4,786 L135,723.6 L107.2,751.4 L107.2,813.8 L107.2,813.8 Z M1728.5,627.9 L1790.1,627.9 L1727.2,565 L1665.6,565 L1728.5,627.9 L1728.5,627.9 Z M1790.1,630.1 L1728.5,630.1 L1665.6,693 L1727.2,693 L1790.1,630.1 L1790.1,630.1 Z M1598.5,628.6 L1662.3,564.8 L1635.1,537.6 L1543.7,629 L1635.1,720.4 L1662.3,693.2 L1598.5,629.4 L1598.1,629 L1598.5,628.6 L1598.5,628.6 Z M1664.5,563.8 L1726.9,563.8 L1726.9,501.4 L1699.1,473.6 L1636.7,536 L1664.5,563.8 L1664.5,563.8 Z M1728,564.2 L1790.9,627.1 L1790.9,565.5 L1728,502.6 L1728,564.2 L1728,564.2 Z M1726.9,694.2 L1664.5,694.2 L1636.7,722 L1699.1,784.4 L1699.1,784.4 L1726.9,756.6 L1726.9,694.2 L1726.9,694.2 Z M1663.1,565.6 L1599.7,629 L1663.1,692.4 L1726.5,629 L1663.1,565.6 L1663.1,565.6 Z M1542.1,627.4 L1633.5,536 L1606.3,508.8 L1542.5,572.6 L1542.1,573 L1541.7,572.6 L1477.9,508.8 L1450.7,536 L1542.1,627.4 L1542.1,627.4 Z M1635.1,534.4 L1635.1,534.4 L1635.1,534.4 L1697.5,472 L1669.7,444.2 L1607.3,444.2 L1607.3,506.6 L1635.1,534.4 L1635.1,534.4 Z M1855.6,630.1 L1794,630.1 L1856.9,693 L1918.5,693 L1855.6,630.1 L1855.6,630.1 Z M1794,627.9 L1855.6,627.9 L1918.5,565 L1856.9,565 L1794,627.9 L1794,627.9 Z M1921.1,565.6 L1857.7,629 L1921.1,692.4 L1984.5,629 L1921.1,565.6 L1921.1,565.6 Z M1856.1,693.8 L1793.2,630.9 L1793.2,692.5 L1856.1,755.4 L1856.1,693.8 L1856.1,693.8 Z M1793.2,627.1 L1856.1,564.2 L1856.1,502.6 L1793.2,565.5 L1793.2,627.1 L1793.2,627.1 Z M1857.2,563.8 L1919.6,563.8 L1947.4,536 L1885,473.6 L1857.2,501.4 L1857.2,563.8 L1857.2,563.8 Z M1949.1,534.4 L1949.1,534.4 L1949.1,534.4 L1976.9,506.6 L1976.9,444.2 L1914.5,444.2 L1886.7,472 L1886.7,472 L1949.1,534.4 L1949.1,534.4 Z M1792.5,435.4 L1856.3,499.2 L1883.5,472 L1792.1,380.6 L1700.7,472 L1727.9,499.2 L1791.7,435.4 L1792.1,435 L1792.5,435.4 L1792.5,435.4 Z M1855.5,500 L1792.1,436.6 L1728.7,500 L1792.1,563.4 L1855.5,500 L1855.5,500 Z M1793.7,379 L1885.1,470.4 L1912.3,443.2 L1848.5,379.4 L1848.1,379 L1848.5,378.6 L1912.3,314.8 L1885.1,287.6 L1793.7,379 L1793.7,379 Z M1790.9,692.5 L1790.9,630.9 L1728,693.8 L1728,755.4 L1790.9,692.5 L1790.9,692.5 Z M1792.1,821.4 L1855.5,758 L1792.1,694.6 L1728.7,758 L1792.1,821.4 L1792.1,821.4 Z M1228.5,627.9 L1290.1,627.9 L1227.2,565 L1165.6,565 L1228.5,627.9 L1228.5,627.9 Z M1290.1,630.1 L1228.5,630.1 L1165.6,693 L1227.2,693 L1290.1,630.1 L1290.1,630.1 Z M1098.5,628.6 L1162.3,564.8 L1135.1,537.6 L1043.7,629 L1135.1,720.4 L1162.3,693.2 L1098.5,629.4 L1098.1,629 L1098.5,628.6 L1098.5,628.6 Z M1164.5,563.8 L1226.9,563.8 L1226.9,501.4 L1199.1,473.6 L1136.7,536 L1164.5,563.8 L1164.5,563.8 Z M1228,564.2 L1290.9,627.1 L1290.9,565.5 L1228,502.6 L1228,564.2 L1228,564.2 Z M1226.9,694.2 L1164.5,694.2 L1136.7,722 L1199.1,784.4 L1199.1,784.4 L1226.9,756.6 L1226.9,694.2 L1226.9,694.2 Z M1163.1,565.6 L1099.7,629 L1163.1,692.4 L1226.5,629 L1163.1,565.6 L1163.1,565.6 Z M1042.1,627.4 L1133.5,536 L1106.3,508.8 L1042.5,572.6 L1042.1,573 L1041.7,572.6 L977.9,508.8 L950.7,536 L1042.1,627.4 L1042.1,627.4 Z M1135.1,534.4 L1135.1,534.4 L1135.1,534.4 L1197.5,472 L1169.7,444.2 L1107.3,444.2 L1107.3,506.6 L1135.1,534.4 L1135.1,534.4 Z M1355.6,630.1 L1294,630.1 L1356.9,693 L1418.5,693 L1355.6,630.1 L1355.6,630.1 Z M1294,627.9 L1355.6,627.9 L1418.5,565 L1356.9,565 L1294,627.9 L1294,627.9 Z M1484.5,629 L1421.1,565.6 L1357.7,629 L1421.1,692.4 L1484.5,629 L1484.5,629 Z M1421.9,564.8 L1485.7,628.6 L1486.1,629 L1485.7,629.4 L1421.9,693.2 L1449.1,720.4 L1540.5,629 L1449.1,537.6 L1421.9,564.8 L1421.9,564.8 Z M1356.1,693.8 L1293.2,630.9 L1293.2,692.5 L1356.1,755.4 L1356.1,693.8 L1356.1,693.8 Z M1293.2,627.1 L1356.1,564.2 L1356.1,502.6 L1293.2,565.5 L1293.2,627.1 L1293.2,627.1 Z M1357.2,563.8 L1419.6,563.8 L1447.4,536 L1385,473.6 L1357.2,501.4 L1357.2,563.8 L1357.2,563.8 Z M1449.1,534.4 L1449.1,534.4 L1449.1,534.4 L1476.9,506.6 L1476.9,444.2 L1414.5,444.2 L1386.7,472 L1386.7,472 L1449.1,534.4 L1449.1,534.4 Z M1292.5,435.4 L1356.3,499.2 L1383.5,472 L1292.1,380.6 L1200.7,472 L1227.9,499.2 L1291.7,435.4 L1292.1,435 L1292.5,435.4 L1292.5,435.4 Z M1355.5,500 L1292.1,436.6 L1228.7,500 L1292.1,563.4 L1355.5,500 L1355.5,500 Z M1293.7,379 L1385.1,470.4 L1412.3,443.2 L1348.5,379.4 L1348.1,379 L1348.5,378.6 L1412.3,314.8 L1385.1,287.6 L1293.7,379 L1293.7,379 Z M1290.9,692.5 L1290.9,630.9 L1228,693.8 L1228,755.4 L1290.9,692.5 L1290.9,692.5 Z M1292.1,821.4 L1355.5,758 L1292.1,694.6 L1228.7,758 L1292.1,821.4 L1292.1,821.4 Z M728.5,627.9 L790.1,627.9 L727.2,565 L665.6,565 L728.5,627.9 L728.5,627.9 Z M790.1,630.1 L728.5,630.1 L665.6,693 L727.2,693 L790.1,630.1 L790.1,630.1 Z M598.5,628.6 L662.3,564.8 L635.1,537.6 L543.7,629 L635.1,720.4 L662.3,693.2 L598.5,629.4 L598.1,629 L598.5,628.6 L598.5,628.6 Z M664.5,563.8 L726.9,563.8 L726.9,501.4 L699.1,473.6 L636.7,536 L664.5,563.8 L664.5,563.8 Z M728,564.2 L790.9,627.1 L790.9,565.5 L728,502.6 L728,564.2 L728,564.2 Z M726.9,694.2 L664.5,694.2 L636.7,722 L699.1,784.4 L699.1,784.4 L726.9,756.6 L726.9,694.2 L726.9,694.2 Z M663.1,565.6 L599.7,629 L663.1,692.4 L726.5,629 L663.1,565.6 L663.1,565.6 Z M542.1,627.4 L633.5,536 L606.3,508.8 L542.5,572.6 L542.1,573 L541.7,572.6 L477.9,508.8 L450.7,536 L542.1,627.4 L542.1,627.4 Z M635.1,534.4 L635.1,534.4 L635.1,534.4 L697.5,472 L669.7,444.2 L607.3,444.2 L607.3,506.6 L635.1,534.4 L635.1,534.4 Z M855.6,630.1 L794,630.1 L856.9,693 L918.5,693 L855.6,630.1 L855.6,630.1 Z M794,627.9 L855.6,627.9 L918.5,565 L856.9,565 L794,627.9 L794,627.9 Z M984.5,629 L921.1,565.6 L857.7,629 L921.1,692.4 L984.5,629 L984.5,629 Z M921.9,564.8 L985.7,628.6 L986.1,629 L985.7,629.4 L921.9,693.2 L949.1,720.4 L1040.5,629 L949.1,537.6 L921.9,564.8 L921.9,564.8 Z M856.1,693.8 L793.2,630.9 L793.2,692.5 L856.1,755.4 L856.1,693.8 L856.1,693.8 Z M793.2,627.1 L856.1,564.2 L856.1,502.6 L793.2,565.5 L793.2,627.1 L793.2,627.1 Z M857.2,563.8 L919.6,563.8 L947.4,536 L885,473.6 L857.2,501.4 L857.2,563.8 L857.2,563.8 Z M949.1,534.4 L949.1,534.4 L949.1,534.4 L976.9,506.6 L976.9,444.2 L914.5,444.2 L886.7,472 L886.7,472 L949.1,534.4 L949.1,534.4 Z M792.5,435.4 L856.3,499.2 L883.5,472 L792.1,380.6 L700.7,472 L727.9,499.2 L791.7,435.4 L792.1,435 L792.5,435.4 L792.5,435.4 Z M855.5,500 L792.1,436.6 L728.7,500 L792.1,563.4 L855.5,500 L855.5,500 Z M793.7,379 L885.1,470.4 L912.3,443.2 L848.5,379.4 L848.1,379 L848.5,378.6 L912.3,314.8 L885.1,287.6 L793.7,379 L793.7,379 Z M790.9,692.5 L790.9,630.9 L728,693.8 L728,755.4 L790.9,692.5 L790.9,692.5 Z M792.1,821.4 L855.5,758 L792.1,694.6 L728.7,758 L792.1,821.4 L792.1,821.4 Z M228.5,627.9 L290.1,627.9 L227.2,565 L165.6,565 L228.5,627.9 L228.5,627.9 Z M290.1,630.1 L228.5,630.1 L165.6,693 L227.2,693 L290.1,630.1 L290.1,630.1 Z M98.5,628.6 L162.3,564.8 L135.1,537.6 L43.7,629 L135.1,720.4 L162.3,693.2 L98.5,629.4 L98.1,629 L98.5,628.6 L98.5,628.6 Z M164.5,563.8 L226.9,563.8 L226.9,501.4 L199.1,473.6 L136.7,536 L164.5,563.8 L164.5,563.8 Z M228,564.2 L290.9,627.1 L290.9,565.5 L228,502.6 L228,564.2 L228,564.2 Z M226.9,694.2 L164.5,694.2 L136.7,722 L199.1,784.4 L199.1,784.4 L226.9,756.6 L226.9,694.2 L226.9,694.2 Z M163.1,565.6 L99.7,629 L163.1,692.4 L226.5,629 L163.1,565.6 L163.1,565.6 Z M135.1,534.4 L135.1,534.4 L135.1,534.4 L197.5,472 L169.7,444.2 L107.3,444.2 L107.3,506.6 L135.1,534.4 L135.1,534.4 Z M355.6,630.1 L294,630.1 L356.9,693 L418.5,693 L355.6,630.1 L355.6,630.1 Z M294,627.9 L355.6,627.9 L418.5,565 L356.9,565 L294,627.9 L294,627.9 Z M484.5,629 L421.1,565.6 L357.7,629 L421.1,692.4 L484.5,629 L484.5,629 Z M421.9,564.8 L485.7,628.6 L486.1,629 L485.7,629.4 L421.9,693.2 L449.1,720.4 L540.5,629 L449.1,537.6 L421.9,564.8 L421.9,564.8 Z M356.1,693.8 L293.2,630.9 L293.2,692.5 L356.1,755.4 L356.1,693.8 L356.1,693.8 Z M293.2,627.1 L356.1,564.2 L356.1,502.6 L293.2,565.5 L293.2,627.1 L293.2,627.1 Z M357.2,563.8 L419.6,563.8 L447.4,536 L385,473.6 L357.2,501.4 L357.2,563.8 L357.2,563.8 Z M449.1,534.4 L449.1,534.4 L449.1,534.4 L476.9,506.6 L476.9,444.2 L414.5,444.2 L386.7,472 L386.7,472 L449.1,534.4 L449.1,534.4 Z M292.5,435.4 L356.3,499.2 L383.5,472 L292.1,380.6 L200.7,472 L227.9,499.2 L291.7,435.4 L292.1,435 L292.5,435.4 L292.5,435.4 Z M355.5,500 L292.1,436.6 L228.7,500 L292.1,563.4 L355.5,500 L355.5,500 Z M293.7,379 L385.1,470.4 L412.3,443.2 L348.5,379.4 L348.1,379 L348.5,378.6 L412.3,314.8 L385.1,287.6 L293.7,379 L293.7,379 Z M290.9,692.5 L290.9,630.9 L228,693.8 L228,755.4 L290.9,692.5 L290.9,692.5 Z M292.1,821.4 L355.5,758 L292.1,694.6 L228.7,758 L292.1,821.4 L292.1,821.4 Z M1976.9,313.8 L1976.9,251.4 L1949.1,223.6 L1886.7,286 L1886.7,286 L1914.5,313.8 L1976.9,313.8 L1976.9,313.8 Z M1913.1,315.6 L1849.7,379 L1913.1,442.4 L1976.5,379 L1913.1,315.6 L1913.1,315.6 Z M1792.1,377.4 L1883.5,286 L1856.3,258.8 L1792.5,322.6 L1792.1,323 L1791.7,322.6 L1727.9,258.8 L1700.7,286 L1792.1,377.4 L1792.1,377.4 Z M1947.5,222 L1947.5,222 L1947.5,222 L1919.7,194.2 L1857.3,194.2 L1857.3,256.6 L1885.1,284.4 L1947.5,222 L1947.5,222 Z M1478.5,377.9 L1540.1,377.9 L1477.2,315 L1415.6,315 L1478.5,377.9 L1478.5,377.9 Z M1540.1,380.1 L1478.5,380.1 L1415.6,443 L1477.2,443 L1540.1,380.1 L1540.1,380.1 Z M1414.5,313.8 L1476.9,313.8 L1476.9,251.4 L1449.1,223.6 L1386.7,286 L1386.7,286 L1414.5,313.8 L1414.5,313.8 Z M1478,314.2 L1540.9,377.1 L1540.9,315.5 L1478,252.6 L1478,314.2 L1478,314.2 Z M1413.1,315.6 L1349.7,379 L1413.1,442.4 L1476.5,379 L1413.1,315.6 L1413.1,315.6 Z M1292.1,377.4 L1383.5,286 L1356.3,258.8 L1292.5,322.6 L1292.1,323 L1291.7,322.6 L1227.9,258.8 L1200.7,286 L1292.1,377.4 L1292.1,377.4 Z M1605.6,380.1 L1544,380.1 L1606.9,443 L1668.5,443 L1605.6,380.1 L1605.6,380.1 Z M1544,377.9 L1605.6,377.9 L1668.5,315 L1606.9,315 L1544,377.9 L1544,377.9 Z M1734.5,379 L1671.1,315.6 L1607.7,379 L1671.1,442.4 L1734.5,379 L1734.5,379 Z M1671.9,314.8 L1735.7,378.6 L1736.1,379 L1735.7,379.4 L1671.9,443.2 L1699.1,470.4 L1790.5,379 L1699.1,287.6 L1671.9,314.8 L1671.9,314.8 Z M1606.1,443.8 L1543.2,380.9 L1543.2,442.5 L1606.1,505.4 L1606.1,443.8 L1606.1,443.8 Z M1543.2,377.1 L1606.1,314.2 L1606.1,252.6 L1543.2,315.5 L1543.2,377.1 L1543.2,377.1 Z M1607.2,313.8 L1669.6,313.8 L1697.4,286 L1635,223.6 L1607.2,251.4 L1607.2,313.8 L1607.2,313.8 Z M1542.5,185.4 L1606.3,249.2 L1633.5,222 L1542.1,130.6 L1542.1,130.6 L1450.7,222 L1477.9,249.2 L1541.7,185.4 L1542.1,185 L1542.5,185.4 L1542.5,185.4 Z M1605.5,250 L1542.1,186.6 L1478.7,250 L1542.1,313.4 L1605.5,250 L1605.5,250 Z M1447.5,222 L1447.5,222 L1447.5,222 L1419.7,194.2 L1357.3,194.2 L1357.3,256.6 L1385.1,284.4 L1447.5,222 L1447.5,222 Z M1540.9,442.5 L1540.9,380.9 L1478,443.8 L1478,505.4 L1540.9,442.5 L1540.9,442.5 Z M1542.1,571.4 L1605.5,508 L1542.1,444.6 L1478.7,508 L1542.1,571.4 L1542.1,571.4 Z M978.5,377.9 L1040.1,377.9 L977.2,315 L915.6,315 L978.5,377.9 L978.5,377.9 Z M1040.1,380.1 L978.5,380.1 L915.6,443 L977.2,443 L1040.1,380.1 L1040.1,380.1 Z M914.5,313.8 L976.9,313.8 L976.9,251.4 L949.1,223.6 L886.7,286 L886.7,286 L914.5,313.8 L914.5,313.8 Z M978,314.2 L1040.9,377.1 L1040.9,315.5 L978,252.6 L978,314.2 L978,314.2 Z M913.1,315.6 L849.7,379 L913.1,442.4 L976.5,379 L913.1,315.6 L913.1,315.6 Z M792.1,377.4 L883.5,286 L856.3,258.8 L792.5,322.6 L792.1,323 L791.7,322.6 L727.9,258.8 L700.7,286 L792.1,377.4 L792.1,377.4 Z M1105.6,380.1 L1044,380.1 L1106.9,443 L1168.5,443 L1105.6,380.1 L1105.6,380.1 Z M1044,377.9 L1105.6,377.9 L1168.5,315 L1106.9,315 L1044,377.9 L1044,377.9 Z M1234.5,379 L1171.1,315.6 L1107.7,379 L1171.1,442.4 L1234.5,379 L1234.5,379 Z M1171.9,314.8 L1235.7,378.6 L1236.1,379 L1235.7,379.4 L1171.9,443.2 L1199.1,470.4 L1290.5,379 L1199.1,287.6 L1171.9,314.8 L1171.9,314.8 Z M1106.1,443.8 L1043.2,380.9 L1043.2,442.5 L1106.1,505.4 L1106.1,443.8 L1106.1,443.8 Z M1043.2,377.1 L1106.1,314.2 L1106.1,252.6 L1043.2,315.5 L1043.2,377.1 L1043.2,377.1 Z M1107.2,313.8 L1169.6,313.8 L1197.4,286 L1135,223.6 L1107.2,251.4 L1107.2,313.8 L1107.2,313.8 Z M1042.5,185.4 L1106.3,249.2 L1133.5,222 L1042.1,130.6 L1042.1,130.6 L950.7,222 L977.9,249.2 L1041.7,185.4 L1042.1,185 L1042.5,185.4 L1042.5,185.4 Z M1105.5,250 L1042.1,186.6 L978.7,250 L1042.1,313.4 L1105.5,250 L1105.5,250 Z M947.5,222 L947.5,222 L947.5,222 L919.7,194.2 L857.3,194.2 L857.3,256.6 L885.1,284.4 L947.5,222 L947.5,222 Z M1040.9,442.5 L1040.9,380.9 L978,443.8 L978,505.4 L1040.9,442.5 L1040.9,442.5 Z M1042.1,571.4 L1105.5,508 L1042.1,444.6 L978.7,508 L1042.1,571.4 L1042.1,571.4 Z M478.5,377.9 L540.1,377.9 L477.2,315 L415.6,315 L478.5,377.9 L478.5,377.9 Z M540.1,380.1 L478.5,380.1 L415.6,443 L477.2,443 L540.1,380.1 L540.1,380.1 Z M414.5,313.8 L476.9,313.8 L476.9,251.4 L449.1,223.6 L386.7,286 L386.7,286 L414.5,313.8 L414.5,313.8 Z M478,314.2 L540.9,377.1 L540.9,315.5 L478,252.6 L478,314.2 L478,314.2 Z M413.1,315.6 L349.7,379 L413.1,442.4 L476.5,379 L413.1,315.6 L413.1,315.6 Z M292.1,377.4 L383.5,286 L356.3,258.8 L292.5,322.6 L292.1,323 L291.7,322.6 L227.9,258.8 L200.7,286 L292.1,377.4 L292.1,377.4 Z M605.6,380.1 L544,380.1 L606.9,443 L668.5,443 L605.6,380.1 L605.6,380.1 Z M544,377.9 L605.6,377.9 L668.5,315 L606.9,315 L544,377.9 L544,377.9 Z M734.5,379 L671.1,315.6 L607.7,379 L671.1,442.4 L734.5,379 L734.5,379 Z M671.9,314.8 L735.7,378.6 L736.1,379 L735.7,379.4 L671.9,443.2 L699.1,470.4 L790.5,379 L699.1,287.6 L671.9,314.8 L671.9,314.8 Z M606.1,443.8 L543.2,380.9 L543.2,442.5 L606.1,505.4 L606.1,443.8 L606.1,443.8 Z M543.2,377.1 L606.1,314.2 L606.1,252.6 L543.2,315.5 L543.2,377.1 L543.2,377.1 Z M607.2,313.8 L669.6,313.8 L697.4,286 L635,223.6 L607.2,251.4 L607.2,313.8 L607.2,313.8 Z M542.5,185.4 L606.3,249.2 L633.5,222 L542.1,130.6 L542.1,130.6 L450.7,222 L477.9,249.2 L541.7,185.4 L542.1,185 L542.5,185.4 L542.5,185.4 Z M605.5,250 L542.1,186.6 L478.7,250 L542.1,313.4 L605.5,250 L605.5,250 Z M447.5,222 L447.5,222 L447.5,222 L419.7,194.2 L357.3,194.2 L357.3,256.6 L385.1,284.4 L447.5,222 L447.5,222 Z M540.9,442.5 L540.9,380.9 L478,443.8 L478,505.4 L540.9,442.5 L540.9,442.5 Z M542.1,571.4 L605.5,508 L542.1,444.6 L478.7,508 L542.1,571.4 L542.1,571.4 Z M105.6,380.1 L44,380.1 L106.9,443 L168.5,443 L105.6,380.1 L105.6,380.1 Z M44,377.9 L105.6,377.9 L168.5,315 L106.9,315 L44,377.9 L44,377.9 Z M234.5,379 L171.1,315.6 L107.7,379 L171.1,442.4 L234.5,379 L234.5,379 Z M171.9,314.8 L235.7,378.6 L236.1,379 L235.7,379.4 L171.9,443.2 L199.1,470.4 L290.5,379 L199.1,287.6 L171.9,314.8 L171.9,314.8 Z M106.1,443.8 L43.2,380.9 L43.2,442.5 L106.1,505.4 L106.1,443.8 L106.1,443.8 Z M43.2,377.1 L106.1,314.2 L106.1,252.6 L43.2,315.5 L43.2,377.1 L43.2,377.1 Z M107.2,313.8 L169.6,313.8 L197.4,286 L135,223.6 L107.2,251.4 L107.2,313.8 L107.2,313.8 Z M1728.5,127.9 L1790.1,127.9 L1727.2,65 L1665.6,65 L1728.5,127.9 L1728.5,127.9 Z M1790.1,130.1 L1728.5,130.1 L1665.6,193 L1727.2,193 L1790.1,130.1 L1790.1,130.1 Z M1664.5,194.2 L1636.7,222 L1699.1,284.4 L1699.1,284.4 L1726.9,256.6 L1726.9,194.2 L1664.5,194.2 L1664.5,194.2 Z M1598.5,128.6 L1662.3,64.8 L1635.1,37.6 L1543.7,129 L1635.1,220.4 L1662.3,193.2 L1598.5,129.4 L1598.1,129 L1598.5,128.6 L1598.5,128.6 Z M1728,64.2 L1790.9,127.1 L1790.9,65.5 L1728,2.6 L1728,64.2 L1728,64.2 Z M1663.1,65.6 L1599.7,129 L1663.1,192.4 L1726.5,129 L1663.1,65.6 L1663.1,65.6 Z M1542.1,127.4 L1633.5,36 L1606.3,8.8 L1542.5,72.6 L1542.1,73 L1541.7,72.6 L1477.9,8.8 L1450.7,36 L1542.1,127.4 L1542.1,127.4 Z M1855.6,130.1 L1794,130.1 L1856.9,193 L1918.5,193 L1855.6,130.1 L1855.6,130.1 Z M1794,127.9 L1855.6,127.9 L1918.5,65 L1856.9,65 L1794,127.9 L1794,127.9 Z M1921.1,65.6 L1857.7,129 L1921.1,192.4 L1984.5,129 L1921.1,65.6 L1921.1,65.6 Z M1856.1,193.8 L1793.2,130.9 L1793.2,192.5 L1856.1,255.4 L1856.1,193.8 L1856.1,193.8 Z M1793.2,127.1 L1856.1,64.2 L1856.1,2.6 L1793.2,65.5 L1793.2,127.1 L1793.2,127.1 Z M1790.9,192.5 L1790.9,130.9 L1728,193.8 L1728,255.4 L1790.9,192.5 L1790.9,192.5 Z M1792.1,321.4 L1855.5,258 L1792.1,194.6 L1728.7,258 L1792.1,321.4 L1792.1,321.4 Z M1228.5,127.9 L1290.1,127.9 L1227.2,65 L1165.6,65 L1228.5,127.9 L1228.5,127.9 Z M1290.1,130.1 L1228.5,130.1 L1165.6,193 L1227.2,193 L1290.1,130.1 L1290.1,130.1 Z M1164.5,194.2 L1136.7,222 L1199.1,284.4 L1199.1,284.4 L1226.9,256.6 L1226.9,194.2 L1164.5,194.2 L1164.5,194.2 Z M1098.5,128.6 L1162.3,64.8 L1135.1,37.6 L1043.7,129 L1135.1,220.4 L1162.3,193.2 L1098.5,129.4 L1098.1,129 L1098.5,128.6 L1098.5,128.6 Z M1228,64.2 L1290.9,127.1 L1290.9,65.5 L1228,2.6 L1228,64.2 L1228,64.2 Z M1163.1,65.6 L1099.7,129 L1163.1,192.4 L1226.5,129 L1163.1,65.6 L1163.1,65.6 Z M1042.1,127.4 L1133.5,36 L1106.3,8.8 L1042.5,72.6 L1042.1,73 L1041.7,72.6 L977.9,8.8 L950.7,36 L1042.1,127.4 L1042.1,127.4 Z M1355.6,130.1 L1294,130.1 L1356.9,193 L1418.5,193 L1355.6,130.1 L1355.6,130.1 Z M1294,127.9 L1355.6,127.9 L1418.5,65 L1356.9,65 L1294,127.9 L1294,127.9 Z M1484.5,129 L1421.1,65.6 L1357.7,129 L1421.1,192.4 L1484.5,129 L1484.5,129 Z M1421.9,64.8 L1485.7,128.6 L1486.1,129 L1485.7,129.4 L1421.9,193.2 L1449.1,220.4 L1540.5,129 L1449.1,37.6 L1421.9,64.8 L1421.9,64.8 Z M1356.1,193.8 L1293.2,130.9 L1293.2,192.5 L1356.1,255.4 L1356.1,193.8 L1356.1,193.8 Z M1293.2,127.1 L1356.1,64.2 L1356.1,2.6 L1293.2,65.5 L1293.2,127.1 L1293.2,127.1 Z M1290.9,192.5 L1290.9,130.9 L1228,193.8 L1228,255.4 L1290.9,192.5 L1290.9,192.5 Z M1292.1,321.4 L1355.5,258 L1292.1,194.6 L1228.7,258 L1292.1,321.4 L1292.1,321.4 Z M728.5,127.9 L790.1,127.9 L727.2,65 L665.6,65 L728.5,127.9 L728.5,127.9 Z M790.1,130.1 L728.5,130.1 L665.6,193 L727.2,193 L790.1,130.1 L790.1,130.1 Z M664.5,194.2 L636.7,222 L699.1,284.4 L699.1,284.4 L726.9,256.6 L726.9,194.2 L664.5,194.2 L664.5,194.2 Z M598.5,128.6 L662.3,64.8 L635.1,37.6 L543.7,129 L635.1,220.4 L662.3,193.2 L598.5,129.4 L598.1,129 L598.5,128.6 L598.5,128.6 Z M728,64.2 L790.9,127.1 L790.9,65.5 L728,2.6 L728,64.2 L728,64.2 Z M663.1,65.6 L599.7,129 L663.1,192.4 L726.5,129 L663.1,65.6 L663.1,65.6 Z M542.1,127.4 L633.5,36 L606.3,8.8 L542.5,72.6 L542.1,73 L541.7,72.6 L477.9,8.8 L450.7,36 L542.1,127.4 L542.1,127.4 Z M855.6,130.1 L794,130.1 L856.9,193 L918.5,193 L855.6,130.1 L855.6,130.1 Z M794,127.9 L855.6,127.9 L918.5,65 L856.9,65 L794,127.9 L794,127.9 Z M984.5,129 L921.1,65.6 L857.7,129 L921.1,192.4 L984.5,129 L984.5,129 Z M921.9,64.8 L985.7,128.6 L986.1,129 L985.7,129.4 L921.9,193.2 L949.1,220.4 L1040.5,129 L949.1,37.6 L921.9,64.8 L921.9,64.8 Z M856.1,193.8 L793.2,130.9 L793.2,192.5 L856.1,255.4 L856.1,193.8 L856.1,193.8 Z M793.2,127.1 L856.1,64.2 L856.1,2.6 L793.2,65.5 L793.2,127.1 L793.2,127.1 Z M790.9,192.5 L790.9,130.9 L728,193.8 L728,255.4 L790.9,192.5 L790.9,192.5 Z M792.1,321.4 L855.5,258 L792.1,194.6 L728.7,258 L792.1,321.4 L792.1,321.4 Z M228.5,127.9 L290.1,127.9 L227.2,65 L165.6,65 L228.5,127.9 L228.5,127.9 Z M290.1,130.1 L228.5,130.1 L165.6,193 L227.2,193 L290.1,130.1 L290.1,130.1 Z M164.5,194.2 L136.7,222 L199.1,284.4 L199.1,284.4 L226.9,256.6 L226.9,194.2 L164.5,194.2 L164.5,194.2 Z M98.5,128.6 L162.3,64.8 L135.1,37.6 L43.7,129 L135.1,220.4 L162.3,193.2 L98.5,129.4 L98.1,129 L98.5,128.6 L98.5,128.6 Z M228,64.2 L290.9,127.1 L290.9,65.5 L228,2.6 L228,64.2 L228,64.2 Z M163.1,65.6 L99.7,129 L163.1,192.4 L226.5,129 L163.1,65.6 L163.1,65.6 Z M355.6,130.1 L294,130.1 L356.9,193 L418.5,193 L355.6,130.1 L355.6,130.1 Z M294,127.9 L355.6,127.9 L418.5,65 L356.9,65 L294,127.9 L294,127.9 Z M484.5,129 L421.1,65.6 L357.7,129 L421.1,192.4 L484.5,129 L484.5,129 Z M421.9,64.8 L485.7,128.6 L486.1,129 L485.7,129.4 L421.9,193.2 L449.1,220.4 L540.5,129 L449.1,37.6 L421.9,64.8 L421.9,64.8 Z M356.1,193.8 L293.2,130.9 L293.2,192.5 L356.1,255.4 L356.1,193.8 L356.1,193.8 Z M293.2,127.1 L356.1,64.2 L356.1,2.6 L293.2,65.5 L293.2,127.1 L293.2,127.1 Z M290.9,192.5 L290.9,130.9 L228,193.8 L228,255.4 L290.9,192.5 L290.9,192.5 Z M292.1,321.4 L355.5,258 L292.1,194.6 L228.7,258 L292.1,321.4 Z" id="Shape"></path>
            </g>
        </g>
    </g>
</svg>